<?xml version="1.0" encoding="UTF-8" standalone="no"?>
<!-- Created with Inkscape (http://www.inkscape.org/) -->

<svg
   xmlns:dc="http://purl.org/dc/elements/1.1/"
   xmlns:cc="http://creativecommons.org/ns#"
   xmlns:rdf="http://www.w3.org/1999/02/22-rdf-syntax-ns#"
   xmlns:svg="http://www.w3.org/2000/svg"
   xmlns="http://www.w3.org/2000/svg"
   xmlns:sodipodi="http://sodipodi.sourceforge.net/DTD/sodipodi-0.dtd"
   xmlns:inkscape="http://www.inkscape.org/namespaces/inkscape"
   width="1280"
   height="359.80008"
   viewBox="0 0 338.66665 95.197109"
   version="1.1"
   id="svg8"
   inkscape:version="0.92.5 (2060ec1f9f, 2020-04-08)"
   sodipodi:docname="b1-larger.svg">
  <defs
     id="defs2">
    <inkscape:path-effect
       effect="spiro"
       id="path-effect933"
       is_visible="true" />
    <inkscape:path-effect
       is_visible="true"
       id="path-effect929"
       effect="spiro" />
    <inkscape:path-effect
       effect="spiro"
       id="path-effect925"
       is_visible="true" />
    <inkscape:path-effect
       effect="spiro"
       id="path-effect909"
       is_visible="true" />
    <inkscape:path-effect
       is_visible="true"
       id="path-effect905"
       effect="spiro" />
    <inkscape:path-effect
       effect="spiro"
       id="path-effect901"
       is_visible="true" />
    <inkscape:path-effect
       is_visible="true"
       id="path-effect895"
       effect="spiro" />
    <inkscape:path-effect
       is_visible="true"
       id="path-effect889"
       effect="spiro" />
    <inkscape:path-effect
       effect="spiro"
       id="path-effect883"
       is_visible="true" />
    <inkscape:path-effect
       is_visible="true"
       id="path-effect863"
       effect="spiro" />
    <inkscape:path-effect
       effect="spiro"
       id="path-effect859"
       is_visible="true" />
    <inkscape:path-effect
       effect="spiro"
       id="path-effect851"
       is_visible="true" />
    <inkscape:path-effect
       effect="spiro"
       id="path-effect843"
       is_visible="true" />
    <clipPath
       clipPathUnits="userSpaceOnUse"
       id="clipPath4849">
      <circle
         style="opacity:1;fill:#ff0000;fill-opacity:1;stroke:none;stroke-width:0.12574923;stroke-linecap:round;stroke-linejoin:bevel;stroke-miterlimit:4;stroke-dasharray:none;stroke-dashoffset:11.07401562;stroke-opacity:1;paint-order:normal"
         id="circle4851"
         cx="139.4135"
         cy="124.17731"
         r="27.14057" />
    </clipPath>
    <clipPath
       clipPathUnits="userSpaceOnUse"
       id="clipPath1144">
      <rect
         y="-407.2739"
         x="452.07703"
         height="49.891205"
         width="162.98334"
         id="rect1146"
         style="opacity:1;fill:#7b7b7b;fill-opacity:1;stroke:none;stroke-width:0.32173949;stroke-linecap:round;stroke-linejoin:bevel;stroke-miterlimit:4;stroke-dasharray:none;stroke-dashoffset:11.07401562;stroke-opacity:1;paint-order:normal" />
    </clipPath>
    <linearGradient
       gradientUnits="userSpaceOnUse"
       id="SVGID_1_"
       x1="256"
       x2="256"
       y1="0"
       y2="510.1322"
       gradientTransform="matrix(0.02583822,0,0,0.02583822,319.79701,-570.31313)">
      <stop
         offset="0"
         style="stop-color:#41BCE7"
         id="stop1477" />
      <stop
         offset="1"
         style="stop-color:#22A6DC"
         id="stop1479" />
    </linearGradient>
    <clipPath
       clipPathUnits="userSpaceOnUse"
       id="clipPath1058">
      <rect
         y="-730.82477"
         x="-217.4407"
         height="100.54166"
         width="84.666656"
         id="rect1060"
         style="opacity:1;fill:#808080;fill-opacity:1;stroke:none;stroke-width:0.07842183;stroke-linecap:round;stroke-linejoin:bevel;stroke-miterlimit:4;stroke-dasharray:none;stroke-dashoffset:11.07401562;stroke-opacity:1;paint-order:normal" />
    </clipPath>
    <filter
       id="filter940"
       style="color-interpolation-filters:sRGB"
       inkscape:menu-tooltip="Adds a small scale graininess"
       inkscape:menu="Image Effects"
       inkscape:label="Film Grain">
      <feTurbulence
         id="feTurbulence930"
         result="result0"
         seed="0"
         baseFrequency="1"
         numOctaves="3"
         type="fractalNoise" />
      <feColorMatrix
         id="feColorMatrix932"
         type="saturate"
         values="0"
         result="result4" />
      <feComposite
         id="feComposite934"
         result="result2"
         k3="0.5"
         k2="0.5"
         k1="1.25"
         operator="arithmetic"
         in2="result4"
         in="SourceGraphic"
         k4="0" />
      <feBlend
         id="feBlend936"
         in2="SourceGraphic"
         in="result2"
         mode="normal"
         result="result5" />
      <feComposite
         id="feComposite938"
         result="result3"
         operator="in"
         in2="SourceGraphic"
         in="result5" />
    </filter>
    <clipPath
       id="clipPath944"
       clipPathUnits="userSpaceOnUse">
      <rect
         style="opacity:1;fill:#f2f2f2;fill-opacity:1;stroke:none;stroke-width:0.49151012;stroke-miterlimit:4;stroke-dasharray:none;stroke-opacity:1"
         id="rect946"
         width="338.66666"
         height="105.83334"
         x="-61.399887"
         y="-59.483379"
         inkscape:export-xdpi="195"
         inkscape:export-ydpi="195"
         inkscape:export-filename="/home/nn/Documents/Web &amp; Design/Sites/profantonionasi.com.br/1.5/img/3.png" />
    </clipPath>
  </defs>
  <sodipodi:namedview
     id="base"
     pagecolor="#ffffff"
     bordercolor="#666666"
     borderopacity="1.0"
     inkscape:pageopacity="0.0"
     inkscape:pageshadow="2"
     inkscape:zoom="0.64000001"
     inkscape:cx="752.75642"
     inkscape:cy="194.12645"
     inkscape:document-units="mm"
     inkscape:current-layer="layer1"
     showgrid="false"
     inkscape:window-width="1356"
     inkscape:window-height="697"
     inkscape:window-x="2"
     inkscape:window-y="0"
     inkscape:window-maximized="0"
     showborder="true"
     inkscape:snap-intersection-paths="false"
     inkscape:snap-global="true"
     inkscape:lockguides="false"
     units="px"
     fit-margin-top="-0.2"
     showguides="true"
     inkscape:guide-bbox="true"
     fit-margin-left="0"
     fit-margin-right="0"
     fit-margin-bottom="0">
    <sodipodi:guide
       position="84.666671,71.966661"
       orientation="0,1"
       id="guide887"
       inkscape:locked="false" />
    <sodipodi:guide
       position="84.666671,21.166671"
       orientation="0,1"
       id="guide889"
       inkscape:locked="false" />
  </sodipodi:namedview>
  <metadata
     id="metadata5">
    <rdf:RDF>
      <cc:Work
         rdf:about="">
        <dc:format>image/svg+xml</dc:format>
        <dc:type
           rdf:resource="http://purl.org/dc/dcmitype/StillImage" />
        <dc:title></dc:title>
      </cc:Work>
    </rdf:RDF>
  </metadata>
  <g
     inkscape:label="Camada 1"
     inkscape:groupmode="layer"
     id="layer1"
     transform="translate(0.36387147,760.38139)">
    <circle
       cy="47.205502"
       cx="-124.02045"
       id="circle4847"
       style="opacity:1;fill:#ff0000;fill-opacity:1;stroke:none;stroke-width:0.15872942;stroke-linecap:round;stroke-linejoin:bevel;stroke-miterlimit:4;stroke-dasharray:none;stroke-dashoffset:11.07401562;stroke-opacity:1;paint-order:normal"
       r="0" />
    <g
       id="g863"
       style="fill:#ffffff"
       transform="matrix(4,0,0,1,1.0916146,2.2292494e-5)">
      <rect
         inkscape:export-ydpi="96"
         inkscape:export-xdpi="96"
         style="opacity:1;fill:#ffffff;fill-opacity:1;stroke:none;stroke-width:0.32041249;stroke-linecap:round;stroke-linejoin:bevel;stroke-miterlimit:4;stroke-dasharray:none;stroke-dashoffset:11.07401562;stroke-opacity:1;paint-order:normal"
         id="rect1084"
         width="84.666664"
         height="95.25"
         x="-0.36387151"
         y="-760.43433" />
      <rect
         y="-673.54602"
         x="-0.36387151"
         height="8.3617153"
         width="28.222221"
         id="rect4799"
         style="opacity:1;fill:#ffffff;fill-opacity:1;stroke:none;stroke-width:0.05481054;stroke-linecap:round;stroke-linejoin:bevel;stroke-miterlimit:4;stroke-dasharray:none;stroke-dashoffset:11.07401562;stroke-opacity:1;paint-order:normal" />
      <rect
         style="opacity:1;fill:#ffffff;fill-opacity:1;stroke:none;stroke-width:0.05481054;stroke-linecap:round;stroke-linejoin:bevel;stroke-miterlimit:4;stroke-dasharray:none;stroke-dashoffset:11.07401562;stroke-opacity:1;paint-order:normal"
         id="rect4801"
         width="28.222221"
         height="8.3617153"
         x="27.858349"
         y="-673.54602" />
      <rect
         y="-673.54602"
         x="56.080574"
         height="8.3617153"
         width="28.222221"
         id="rect4803"
         style="opacity:1;fill:#ffffff;fill-opacity:1;stroke:none;stroke-width:0.05481054;stroke-linecap:round;stroke-linejoin:bevel;stroke-miterlimit:4;stroke-dasharray:none;stroke-dashoffset:11.07401562;stroke-opacity:1;paint-order:normal" />
    </g>
    <rect
       inkscape:export-filename="/home/nn/Documents/Web &amp; Design/Sites/profantonionasi.com.br/1.5/img/3.png"
       inkscape:export-ydpi="195"
       inkscape:export-xdpi="195"
       y="-59.483379"
       x="-61.399857"
       height="105.83334"
       width="338.66666"
       id="rect928"
       style="opacity:1;fill:#008080;fill-opacity:0.33333333;stroke:none;stroke-width:0.49151012;stroke-miterlimit:4;stroke-dasharray:none;stroke-opacity:1;filter:url(#filter940)"
       clip-path="url(#clipPath944)"
       transform="matrix(0.99999999,0,0,0.8999999,61.036015,-706.89927)" />
    <g
       id="g1000"
       transform="matrix(0.94612942,0,0,0.94612942,9.6477905,-39.568464)">
      <g
         transform="matrix(0.02931171,0,0,0.02931171,212.25554,-757.37684)"
         inkscape:export-ydpi="4.77"
         inkscape:export-xdpi="4.77"
         id="g6243">
        <path
           inkscape:connector-curvature="0"
           style="opacity:1;fill:#000000;fill-opacity:1;stroke:none;stroke-width:82.5280838;stroke-linecap:round;stroke-linejoin:bevel;stroke-miterlimit:4;stroke-dasharray:none;stroke-dashoffset:11.07401562;stroke-opacity:1;paint-order:normal"
           d="m 2496.3398,4166.4141 -174.9316,0.01 v 76.75 a 1459.279,1459.279 0 0 1 87.4629,-3.0957 1459.279,1459.279 0 0 0 -198.4902,15.2188 l -15.2227,-76.4102 -171.5586,34.1777 15.0762,75.6758 a 1459.279,1459.279 0 0 0 -100.8438,31.3262 1459.279,1459.279 0 0 1 0.166,-0.057 l -29.6054,-72.2227 -161.8594,66.3477 29.4023,71.7265 a 1459.279,1459.279 0 0 1 0.09,-0.037 1459.279,1459.279 0 0 0 -95.209,50.9473 1459.279,1459.279 0 0 1 0.1426,-0.084 l -42.9961,-65.1992 -146.0352,96.3047 42.8008,64.9004 a 1459.279,1459.279 0 0 0 -92.8555,76.1894 1459.279,1459.279 0 0 1 0.1172,-0.1055 l -55.2168,-55.2187 -123.6953,123.6973 54.9141,54.914 a 1459.279,1459.279 0 0 1 0.064,-0.064 1459.279,1459.279 0 0 0 -70.4921,86.6015 l -64.9532,-43.373 -97.1425,145.4746 64.6796,43.1914 a 1459.279,1459.279 0 0 0 -49.5625,92.9766 l -72.0214,-30.1426 -67.53716,161.3672 71.92386,30.1015 a 1459.279,1459.279 0 0 0 -31.7383,102.9004 l -76.4004,-15.6777 -35.16406,171.3594 76.46875,15.6914 a 1459.279,1459.279 0 0 0 -12.21875,120.7129 1459.279,1459.279 0 0 1 0.0703,-1.4004 h -78.0293 v 174.9297 h 76.75 a 1459.279,1459.279 0 0 1 -3.09765,-87.461 1459.279,1459.279 0 0 1 0.004,-0.096 1459.279,1459.279 0 0 0 -0.002,0.096 1459.279,1459.279 0 0 0 3.0957,87.461 1459.279,1459.279 0 0 0 12.12305,111.0273 l -76.41992,15.2227 34.17578,171.5605 75.67773,-15.0762 a 1459.279,1459.279 0 0 0 31.27927,100.6797 l -72.22263,29.6035 66.34563,161.8575 71.7305,-29.4024 a 1459.279,1459.279 0 0 0 50.8242,94.9785 l -65.1992,42.9961 96.3047,146.0352 64.9004,-42.8008 a 1459.279,1459.279 0 0 0 76.0859,92.7402 l -55.2168,55.2168 123.6934,123.6934 54.914,-54.9141 a 1459.279,1459.279 0 0 0 86.5372,70.4297 l -43.3731,64.9512 145.4766,97.1445 43.1894,-64.6777 a 1459.279,1459.279 0 0 0 92.9766,49.5605 l -30.1426,72.0196 161.3652,67.5351 30.1016,-71.9199 a 1459.279,1459.279 0 0 0 102.9043,31.7383 l -15.6777,76.4004 171.3574,35.164 15.6914,-76.4687 a 1459.279,1459.279 0 0 0 119.3164,12.1465 v 78.0332 h 174.9297 v -76.752 a 1459.279,1459.279 0 0 0 111.0234,-12.123 l 15.2246,76.4238 171.5586,-34.1777 -15.0761,-75.6797 v 0 a 1459.279,1459.279 0 0 0 100.6757,-31.2773 l 29.6055,72.2226 161.8594,-66.3437 -29.4024,-71.7324 a 1459.279,1459.279 0 0 0 94.9766,-50.8262 l 42.9961,65.1992 146.0352,-96.3008 -42.7989,-64.9023 a 1459.279,1459.279 0 0 0 92.7403,-76.0899 l 55.2187,55.2188 123.6934,-123.6934 -54.916,-54.914 a 1459.279,1459.279 0 0 0 70.4257,-86.5352 l 64.9531,43.375 97.1445,-145.4785 -64.6796,-43.1914 a 1459.279,1459.279 0 0 0 49.5585,-92.9746 l 72.0195,30.1445 67.5371,-161.3691 -71.9218,-30.1016 a 1459.279,1459.279 0 0 0 31.7382,-102.9043 l 76.4004,15.6777 35.1641,-171.3574 -76.4687,-15.6933 a 1459.279,1459.279 0 0 0 12.1484,-119.3164 h 78.0293 V 5611.893 h -76.75 a 1459.279,1459.279 0 0 0 -12.1231,-111.0234 l 76.4219,-15.2246 -34.1758,-171.5567 -75.6797,15.0762 a 1459.279,1459.279 0 0 0 -31.2792,-100.6758 l 72.2246,-29.6054 -66.3477,-161.8614 -71.7305,29.4024 a 1459.279,1459.279 0 0 0 -50.9082,-95.1192 1459.279,1459.279 0 0 1 0.084,0.1446 l 65.2012,-42.9981 -96.3047,-146.0312 -64.9004,42.8007 a 1459.279,1459.279 0 0 1 0.025,0.037 1459.279,1459.279 0 0 0 -76.1133,-92.7813 l 55.2188,-55.2187 -123.6953,-123.6954 -54.9161,54.9161 a 1459.279,1459.279 0 0 0 -86.6894,-70.543 1459.279,1459.279 0 0 1 0.1543,0.1172 l 43.375,-64.9551 -145.4766,-97.1406 -43.1914,64.6797 a 1459.279,1459.279 0 0 0 -92.9746,-49.5606 l 30.1426,-72.0215 -161.3672,-67.539 -30.1035,71.9218 a 1459.279,1459.279 0 0 0 -132.1094,-39.1933 1459.279,1459.279 0 0 1 29.207,7.457 l 15.6778,-76.3984 -171.3574,-35.1641 -15.6915,76.4629 a 1459.279,1459.279 0 0 0 -119.3125,-12.1504 z m -44.8066,243.1093 A 1141.6013,1141.6013 0 0 1 3593.1348,5551.125 1141.6013,1141.6013 0 0 1 2451.5332,6692.7266 1141.6013,1141.6013 0 0 1 1309.9316,5551.125 1141.6013,1141.6013 0 0 1 2451.5332,4409.5234 Z"
           transform="scale(0.26458333)"
           id="path5622" />
        <path
           inkscape:connector-curvature="0"
           style="opacity:1;fill:#ffcc00;fill-opacity:1;stroke:none;stroke-width:66.18000793;stroke-linecap:round;stroke-linejoin:bevel;stroke-miterlimit:4;stroke-dasharray:none;stroke-dashoffset:11.07401562;stroke-opacity:1;paint-order:normal"
           d="m 2514.8477,1681.9531 -140.2813,0.01 v 61.5469 a 1170.209,1170.209 0 0 1 70.1387,-2.4825 1170.209,1170.209 0 0 0 -159.1719,12.2051 l -12.207,-61.2734 -137.5742,27.4062 12.0878,60.6778 a 1170.209,1170.209 0 0 0 -80.8652,25.1191 1170.209,1170.209 0 0 1 0.1328,-0.045 l -23.7402,-57.916 -129.7969,53.205 23.5781,57.5196 a 1170.209,1170.209 0 0 1 0.072,-0.037 1170.209,1170.209 0 0 0 -76.3496,40.8535 1170.209,1170.209 0 0 1 0.1152,-0.064 l -34.4804,-52.2832 -117.1055,77.2266 34.3223,52.0449 a 1170.209,1170.209 0 0 0 -74.4629,61.0957 1170.209,1170.209 0 0 1 0.094,-0.084 l -44.2773,-44.2773 -99.1934,99.1934 44.0371,44.0351 a 1170.209,1170.209 0 0 1 0.051,-0.053 1170.209,1170.209 0 0 0 -56.5273,69.4472 l -52.0879,-34.7812 -77.8985,116.6562 51.8672,34.6368 a 1170.209,1170.209 0 0 0 -39.7461,74.5586 l -57.7539,-24.1719 -54.1582,129.4023 57.6758,24.1387 a 1170.209,1170.209 0 0 0 -25.4512,82.5156 l -61.2656,-12.5723 -28.1992,137.4161 61.3222,12.582 a 1170.209,1170.209 0 0 0 -9.7968,96.8008 1170.209,1170.209 0 0 1 0.055,-1.1094 h -62.5743 v 140.2754 h 61.5469 a 1170.209,1170.209 0 0 1 -2.4844,-70.1348 1170.209,1170.209 0 0 1 0,-0.078 1170.209,1170.209 0 0 0 0,0.066 1170.209,1170.209 0 0 0 2.4844,70.1348 1170.209,1170.209 0 0 0 9.7207,89.0332 l -61.2813,12.209 27.4043,137.5761 60.6875,-12.0898 a 1170.209,1170.209 0 0 0 25.084,80.7363 l -57.916,23.7383 53.2031,129.7949 57.5215,-23.5781 a 1170.209,1170.209 0 0 0 40.7559,76.1641 l -52.2832,34.4785 77.2265,117.1093 52.0449,-34.3242 a 1170.209,1170.209 0 0 0 61.0137,74.3692 l -44.2793,44.2793 99.1914,99.1894 44.0352,-44.0351 a 1170.209,1170.209 0 0 0 69.3945,56.4785 l -34.7812,52.0859 116.6601,77.9004 34.6328,-51.8652 a 1170.209,1170.209 0 0 0 74.5606,39.7422 l -24.1719,57.7539 129.4004,54.1562 24.1387,-57.6738 a 1170.209,1170.209 0 0 0 82.5195,25.4512 l -12.5723,61.2675 137.4121,28.1973 12.584,-61.3203 a 1170.209,1170.209 0 0 0 95.6817,9.7402 V 4140.5 h 140.2773 v -61.5488 a 1170.209,1170.209 0 0 0 89.0293,-9.7207 l 12.209,61.2851 137.5742,-27.4082 -12.0898,-60.6875 v 0 a 1170.209,1170.209 0 0 0 80.7343,-25.0821 l 23.7403,57.9161 129.7968,-53.2012 -23.5781,-57.5235 a 1170.209,1170.209 0 0 0 76.1621,-40.7578 l 34.4785,52.2832 117.1075,-77.2226 -34.3203,-52.0469 a 1170.209,1170.209 0 0 0 74.3691,-61.0176 l 44.2793,44.2793 99.1914,-99.1894 -44.0371,-44.0352 a 1170.209,1170.209 0 0 0 56.4746,-69.3945 l 52.0859,34.7832 77.9023,-116.6602 -51.8672,-34.6367 a 1170.209,1170.209 0 0 0 39.7403,-74.5566 l 57.7539,24.1738 54.1582,-129.4043 -57.6757,-24.1387 a 1170.209,1170.209 0 0 0 25.4511,-82.5195 l 61.2676,12.5723 28.1973,-137.4121 -61.3203,-12.586 a 1170.209,1170.209 0 0 0 9.7421,-95.6816 h 62.5723 V 2841.084 h -61.5469 a 1170.209,1170.209 0 0 0 -9.7226,-89.0313 l 61.2851,-12.2089 -27.4062,-137.5723 -60.6895,12.0898 a 1170.209,1170.209 0 0 0 -25.082,-80.7324 l 57.918,-23.7402 -53.2051,-129.7989 -57.5215,23.5782 a 1170.209,1170.209 0 0 0 -40.8242,-76.2774 1170.209,1170.209 0 0 1 0.068,0.1133 l 52.2851,-34.4805 -77.2285,-117.1035 -52.0449,34.3223 a 1170.209,1170.209 0 0 1 0.023,0.039 1170.209,1170.209 0 0 0 -61.0351,-74.4023 l 44.2792,-44.2812 -99.1914,-99.1915 -44.039,44.0372 a 1170.209,1170.209 0 0 0 -69.5156,-56.5704 1170.209,1170.209 0 0 1 0.123,0.096 l 34.7832,-52.0879 -116.6602,-77.8985 -34.6347,51.8672 a 1170.209,1170.209 0 0 0 -74.5567,-39.7441 l 24.1719,-57.7539 -129.4023,-54.1602 -24.1406,57.6758 a 1170.209,1170.209 0 0 0 -105.9395,-31.4317 1170.209,1170.209 0 0 1 23.4219,5.9805 l 12.5722,-61.2637 -137.414,-28.1992 -12.5821,61.3184 a 1170.209,1170.209 0 0 0 -95.6796,-9.7461 z m 53.1992,380.586 a 896.2271,896.2271 0 0 1 896.2285,896.2265 896.2271,896.2271 0 0 1 -896.2285,896.2266 896.2271,896.2271 0 0 1 -896.2266,-896.2266 896.2271,896.2271 0 0 1 896.2266,-896.2265 z"
           transform="scale(0.26458333)"
           id="path5624" />
        <path
           inkscape:connector-curvature="0"
           style="opacity:1;fill:#ff0000;fill-opacity:1;stroke:none;stroke-width:123.04499817;stroke-linecap:round;stroke-linejoin:bevel;stroke-miterlimit:4;stroke-dasharray:none;stroke-dashoffset:11.07401562;stroke-opacity:1;paint-order:normal"
           d="m 5977.3711,1682.0566 -260.8535,0.02 v 114.4297 a 2175.7079,2175.7079 0 0 1 130.4023,-4.6153 2175.7079,2175.7079 0 0 0 -295.9375,22.6914 l -22.6953,-113.9218 -255.7851,50.955 22.4765,112.8184 a 2175.7079,2175.7079 0 0 0 -150.3535,46.7031 2175.7079,2175.7079 0 0 1 0.25,-0.086 l -44.1406,-107.6817 -241.3242,98.9219 43.8378,106.9434 a 2175.7079,2175.7079 0 0 1 0.1329,-0.068 2175.7079,2175.7079 0 0 0 -141.9512,75.959 2175.7079,2175.7079 0 0 1 0.2109,-0.1211 l -64.1054,-97.209 -217.7305,143.584 63.8125,96.7637 a 2175.7079,2175.7079 0 0 0 -138.4414,113.5937 2175.7079,2175.7079 0 0 1 0.1738,-0.1562 l -82.3262,-82.3242 -184.4218,184.4238 81.873,81.873 a 2175.7079,2175.7079 0 0 1 0.098,-0.098 2175.7079,2175.7079 0 0 0 -105.0996,129.1191 l -96.8418,-64.668 -144.834,216.8946 96.4336,64.3984 a 2175.7079,2175.7079 0 0 0 -73.8946,138.6211 l -107.3808,-44.9394 -100.6934,240.5879 107.2344,44.8808 a 2175.7079,2175.7079 0 0 0 -47.3203,153.4199 l -113.9082,-23.375 -52.4278,255.4883 114.0098,23.3945 a 2175.7079,2175.7079 0 0 0 -18.2129,179.9434 2175.7079,2175.7079 0 0 1 0.1016,-2.0312 h -116.3379 v 260.8085 h 114.4297 a 2175.7079,2175.7079 0 0 1 0,-0.021 2175.7079,2175.7079 0 0 1 -4.6192,-130.377 2175.7079,2175.7079 0 0 1 0.01,-0.1582 2175.7079,2175.7079 0 0 0 0,0.1348 2175.7079,2175.7079 0 0 0 4.6153,130.4004 2175.7079,2175.7079 0 0 0 18.0742,165.5351 l -113.9375,22.6973 50.9531,255.7871 112.8321,-22.4766 a 2175.7079,2175.7079 0 0 0 46.6367,150.1075 l -107.6797,44.1367 98.916,241.3203 106.9473,-43.836 a 2175.7079,2175.7079 0 0 0 75.7754,141.6075 l -97.2071,64.1035 143.584,217.7344 96.7637,-63.8164 a 2175.7079,2175.7079 0 0 0 113.4394,138.2714 l -82.3242,82.3262 184.4199,184.4199 81.8731,-81.875 a 2175.7079,2175.7079 0 0 0 129.0234,105.0078 l -64.6679,96.8379 216.8984,144.8379 64.3926,-96.4297 a 2175.7079,2175.7079 0 0 0 138.623,73.8887 l -44.9414,107.3809 240.5879,100.6894 44.8809,-107.2285 a 2175.7079,2175.7079 0 0 0 153.4238,47.3203 l -23.375,113.9102 255.4844,52.4258 23.3964,-114.0098 a 2175.7079,2175.7079 0 0 0 177.8946,18.1094 v 116.3437 h 260.8105 v -114.4336 a 2175.7079,2175.7079 0 0 0 165.5293,-18.0742 l 22.6992,113.9434 255.7852,-50.9571 -22.4785,-112.834 a 2175.7079,2175.7079 0 0 0 150.1035,-46.6328 l 44.1406,107.6817 241.3223,-98.916 -43.8359,-106.9512 a 2175.7079,2175.7079 0 0 0 141.6035,-75.7774 l 64.1054,97.2071 217.7305,-143.5762 -63.8105,-96.7695 a 2175.7079,2175.7079 0 0 0 138.2714,-113.4434 l 82.3282,82.3281 184.4199,-184.4199 -81.877,-81.875 a 2175.7079,2175.7079 0 0 0 105.002,-129.0195 l 96.8418,64.6699 144.8379,-216.9023 -96.4336,-64.3946 a 2175.7079,2175.7079 0 0 0 73.8887,-138.6191 l 107.3789,44.9433 100.6933,-240.5937 -107.2324,-44.8789 a 2175.7079,2175.7079 0 0 0 47.3203,-153.4258 l 113.9082,23.375 52.4297,-255.4844 -114.0117,-23.3984 a 2175.7079,2175.7079 0 0 0 18.1133,-177.8945 h 116.3359 V 3837.1726 H 8018.0162 A 2175.7079,2175.7079 0 0 0 7999.94,3671.6433 l 113.9414,-22.6992 -50.9551,-255.7813 -112.834,22.4766 a 2175.7079,2175.7079 0 0 0 -46.6347,-150.1016 l 107.6816,-44.1387 -98.9199,-241.3281 -106.9473,43.8359 a 2175.7079,2175.7079 0 0 0 -75.9004,-141.8164 2175.7079,2175.7079 0 0 1 0.125,0.2129 l 97.211,-64.1093 -143.586,-217.7227 -96.7558,63.8086 a 2175.7079,2175.7079 0 0 0 -113.4199,-138.2598 l 82.3281,-82.3281 -184.4238,-184.4238 -81.875,81.8769 a 2175.7079,2175.7079 0 0 0 -129.25,-105.1757 2175.7079,2175.7079 0 0 1 0.2304,0.1738 l 64.6699,-96.8438 -216.8984,-144.832 -64.3945,96.4336 a 2175.7079,2175.7079 0 0 0 -138.6211,-73.8926 l 44.9414,-107.3789 -240.5918,-100.6973 -44.8809,107.2325 a 2175.7079,2175.7079 0 0 0 -196.9687,-58.4375 2175.7079,2175.7079 0 0 1 43.5449,11.1172 l 23.375,-113.9043 -255.4844,-52.4297 -23.3925,114.0039 a 2175.7079,2175.7079 0 0 0 -177.8809,-18.1172 z m -368.6738,504.3086 A 1755.0366,1755.0366 0 0 1 7363.7344,3941.4023 1755.0366,1755.0366 0 0 1 5608.6973,5696.4395 1755.0366,1755.0366 0 0 1 3853.6621,3941.4023 1755.0366,1755.0366 0 0 1 5608.6973,2186.3652 Z"
           transform="scale(0.26458333)"
           id="path5626" />
        <g
           transform="matrix(4.8927166,0,0,4.8927166,-17056.523,-1177.8299)"
           id="g2966">
          <text
             id="text2940"
             y="772.03802"
             x="3304.2598"
             style="font-style:normal;font-weight:normal;font-size:194.91957092px;line-height:1.25;font-family:sans-serif;letter-spacing:0px;word-spacing:0px;fill:#000000;fill-opacity:1;stroke:none;stroke-width:4.87298918"
             xml:space="preserve"><tspan
               style="font-style:normal;font-variant:normal;font-weight:900;font-stretch:normal;font-family:'Source Sans Pro';-inkscape-font-specification:'Source Sans Pro Heavy';fill:#000000;fill-opacity:1;stroke-width:4.87298918"
               y="772.03802"
               x="3304.2598"
               id="tspan2938"
               sodipodi:role="line">G</tspan></text>
          <text
             xml:space="preserve"
             style="font-style:normal;font-weight:normal;font-size:194.91957092px;line-height:1.25;font-family:sans-serif;letter-spacing:0px;word-spacing:0px;fill:#000000;fill-opacity:1;stroke:none;stroke-width:4.87298918"
             x="3422.061"
             y="772.03802"
             id="text2944"><tspan
               sodipodi:role="line"
               id="tspan2942"
               x="3422.061"
               y="772.03802"
               style="font-style:normal;font-variant:normal;font-weight:900;font-stretch:normal;font-family:'Source Sans Pro';-inkscape-font-specification:'Source Sans Pro Heavy';fill:#000000;fill-opacity:1;stroke-width:4.87298918">E</tspan></text>
          <text
             id="text2948"
             y="772.03809"
             x="3522.3201"
             style="font-style:normal;font-weight:normal;font-size:194.91957092px;line-height:1.25;font-family:sans-serif;letter-spacing:0px;word-spacing:0px;fill:#000000;fill-opacity:1;stroke:none;stroke-width:4.87298918"
             xml:space="preserve"><tspan
               style="font-style:normal;font-variant:normal;font-weight:900;font-stretch:normal;font-family:'Source Sans Pro';-inkscape-font-specification:'Source Sans Pro Heavy';fill:#000000;fill-opacity:1;stroke-width:4.87298918"
               y="772.03809"
               x="3522.3201"
               id="tspan2946"
               sodipodi:role="line">M</tspan></text>
          <text
             xml:space="preserve"
             style="font-style:normal;font-weight:normal;font-size:194.91957092px;line-height:1.25;font-family:sans-serif;letter-spacing:0px;word-spacing:0px;fill:#ff0000;fill-opacity:1;stroke:none;stroke-width:4.87298918"
             x="3661.9529"
             y="772.03809"
             id="text2952"><tspan
               sodipodi:role="line"
               id="tspan2950"
               x="3661.9529"
               y="772.03809"
               style="font-style:normal;font-variant:normal;font-weight:900;font-stretch:normal;font-family:'Source Sans Pro';-inkscape-font-specification:'Source Sans Pro Heavy';fill:#ff0000;fill-opacity:1;stroke-width:4.87298918">M</tspan></text>
          <text
             id="text2956"
             y="772.03809"
             x="3817.5691"
             style="font-style:normal;font-weight:normal;font-size:194.91957092px;line-height:1.25;font-family:sans-serif;letter-spacing:0px;word-spacing:0px;fill:#ff0000;fill-opacity:1;stroke:none;stroke-width:4.87298918"
             xml:space="preserve"><tspan
               style="font-style:normal;font-variant:normal;font-weight:900;font-stretch:normal;font-family:'Source Sans Pro';-inkscape-font-specification:'Source Sans Pro Heavy';fill:#ff0000;fill-opacity:1;stroke-width:4.87298918"
               y="772.03809"
               x="3817.5691"
               id="tspan2954"
               sodipodi:role="line">A</tspan></text>
          <text
             xml:space="preserve"
             style="font-style:normal;font-weight:normal;font-size:194.91957092px;line-height:1.25;font-family:sans-serif;letter-spacing:0px;word-spacing:0px;fill:#ff0000;fill-opacity:1;stroke:none;stroke-width:4.87298918"
             x="3935.7605"
             y="772.03809"
             id="text2960"><tspan
               sodipodi:role="line"
               id="tspan2958"
               x="3935.7605"
               y="772.03809"
               style="font-style:normal;font-variant:normal;font-weight:900;font-stretch:normal;font-family:'Source Sans Pro';-inkscape-font-specification:'Source Sans Pro Heavy';fill:#ff0000;fill-opacity:1;stroke-width:4.87298918">R</tspan></text>
          <text
             id="text2964"
             y="772.03809"
             x="4069.9353"
             style="font-style:normal;font-weight:normal;font-size:194.91957092px;line-height:1.25;font-family:sans-serif;letter-spacing:0px;word-spacing:0px;fill:#ff0000;fill-opacity:1;stroke:none;stroke-width:4.87298918"
             xml:space="preserve"><tspan
               style="font-style:normal;font-variant:normal;font-weight:900;font-stretch:normal;font-family:'Source Sans Pro';-inkscape-font-specification:'Source Sans Pro Heavy';fill:#ff0000;fill-opacity:1;stroke-width:4.87298918"
               y="772.03809"
               x="4069.9353"
               id="tspan2962"
               sodipodi:role="line">X</tspan></text>
        </g>
        <text
           xml:space="preserve"
           style="font-style:normal;font-weight:normal;font-size:141.2749939px;line-height:1.25;font-family:sans-serif;letter-spacing:0px;word-spacing:0px;fill:#000000;fill-opacity:1;stroke:none;stroke-width:3.53187466"
           x="-853.7901"
           y="2796.3586"
           id="text3218"><tspan
             sodipodi:role="line"
             id="tspan3216"
             x="-853.7901"
             y="2796.3586"
             style="font-style:normal;font-variant:normal;font-weight:normal;font-stretch:normal;font-family:'Source Sans Pro';-inkscape-font-specification:'Source Sans Pro';stroke-width:3.53187466">GRUPO DE ESTUDOS SOBRE O MÉTODO EM MARX - GEMMARX/EMANCIPA</tspan></text>
        <g
           id="g3212"
           transform="matrix(3.7986976,3.7986976,-3.7986976,3.7986976,-10256.974,-14365.79)"
           style="fill:#ff0000;fill-opacity:1">
          <path
             sodipodi:nodetypes="cccczc"
             inkscape:connector-curvature="0"
             id="path3208"
             d="m 3782.2913,467.78518 -219.0034,2.40543 v 19.77795 l 219.4904,2.40543 c 0,0 10.2278,-1.9154 10.2278,-12.56164 0,-10.64624 -10.7148,-12.02717 -10.7148,-12.02717 z"
             style="opacity:1;fill:#ff0000;fill-opacity:1;stroke:none;stroke-width:4.83270407;stroke-linecap:round;stroke-linejoin:bevel;stroke-miterlimit:4;stroke-dasharray:none;stroke-dashoffset:11.07401562;stroke-opacity:1;paint-order:normal" />
          <path
             sodipodi:nodetypes="ccccc"
             inkscape:connector-curvature="0"
             id="path3210"
             d="m 3578.7391,426.89296 -37.4179,24.88843 v 67.05226 h 37.4179 z"
             style="fill:#ff0000;fill-opacity:1;stroke:none;stroke-width:0.21044269px;stroke-linecap:butt;stroke-linejoin:miter;stroke-opacity:1" />
        </g>
      </g>
      <text
         id="text912"
         y="-732.92224"
         x="25.691748"
         style="font-style:normal;font-weight:normal;font-size:15.01836491px;line-height:1.25;font-family:sans-serif;letter-spacing:0px;word-spacing:0px;fill:#000000;fill-opacity:1;stroke:none;stroke-width:0.3754591"
         xml:space="preserve"><tspan
           style="font-style:normal;font-variant:normal;font-weight:bold;font-stretch:normal;font-family:'Noto Serif';-inkscape-font-specification:'Noto Serif Bold';stroke-width:0.3754591"
           y="-732.92224"
           x="25.691748"
           id="tspan910"
           sodipodi:role="line">Grupo de Estudos sobre</tspan><tspan
           id="tspan914"
           style="font-style:normal;font-variant:normal;font-weight:bold;font-stretch:normal;font-family:'Noto Serif';-inkscape-font-specification:'Noto Serif Bold';stroke-width:0.3754591"
           y="-713.77228"
           x="25.691748"
           sodipodi:role="line">o Método em Marx</tspan></text>
      <rect
         y="-699.53711"
         x="26.395735"
         height="24.113544"
         width="152.69475"
         id="rect918"
         style="opacity:1;fill:#000000;fill-opacity:1;stroke:none;stroke-width:0.12045909;stroke-linecap:round;stroke-linejoin:bevel;stroke-miterlimit:4;stroke-dasharray:none;stroke-dashoffset:11.07401562;stroke-opacity:1;paint-order:normal" />
      <text
         xml:space="preserve"
         style="font-style:normal;font-weight:normal;font-size:8.27395916px;line-height:1.25;font-family:sans-serif;letter-spacing:0px;word-spacing:0px;fill:#ffffff;fill-opacity:1;stroke:none;stroke-width:0.20684899"
         x="34.532944"
         y="-685.56317"
         id="text924"><tspan
           sodipodi:role="line"
           x="34.532944"
           y="-685.56317"
           style="font-style:normal;font-variant:normal;font-weight:bold;font-stretch:normal;font-family:'Noto Serif';-inkscape-font-specification:'Noto Serif Bold';fill:#ffffff;stroke-width:0.20684899"
           id="tspan922">VEJA A AGENDA DE ENCONTROS</tspan></text>
    </g>
  </g>
  <style
     id="style1451"
     type="text/css">
	.st0{fill:#BD081C;}
	.st1{fill:#FFFFFF;}
</style>
  <style
     id="style1475"
     type="text/css">
	.st0{fill:url(#SVGID_1_);}
	.st1{fill:#FFFFFF;}
	.st2{fill:#D2E4F0;}
	.st3{fill:#B5CFE4;}
</style>
  <style
     id="style1511"
     type="text/css">
	.st0{fill:#FF0000;}
	.st1{fill:#FFFFFF;}
</style>
  <style
     id="style1542"
     type="text/css">
	.st0{fill:#25D366;}
	.st1{fill-rule:evenodd;clip-rule:evenodd;fill:#FFFFFF;}
</style>
</svg>
