<?xml version="1.0" ?><!DOCTYPE svg  PUBLIC '-//W3C//DTD SVG 1.1//EN'  'http://www.w3.org/Graphics/SVG/1.1/DTD/svg11.dtd'><svg enable-background="new 0 0 128 128" height="128px" id="Layer_1" version="1.1" viewBox="0 0 128 128" width="128px" xml:space="preserve" xmlns="http://www.w3.org/2000/svg" xmlns:xlink="http://www.w3.org/1999/xlink"><g><path d="M128,112c0,8.8-7.2,16-16,16H16c-8.8,0-16-7.2-16-16V16C0,7.2,7.2,0,16,0h96c8.8,0,16,7.2,16,16V112z" fill="#25D366"/><g><path d="M96.597,31.214c-8.648-8.659-20.15-13.429-32.405-13.436c-25.247,0-45.798,20.548-45.808,45.806    c-0.003,8.074,2.106,15.954,6.115,22.899L18,110.222l24.283-6.369c6.691,3.648,14.225,5.571,21.891,5.576h0.02l0,0    c25.247,0,45.797-20.552,45.807-45.81C110.004,51.381,105.243,39.872,96.597,31.214 M64.193,101.691h-0.016    c-6.833-0.002-13.533-1.839-19.38-5.307l-1.391-0.825l-14.409,3.778l3.846-14.048l-0.906-1.442    c-3.812-6.061-5.825-13.066-5.82-20.262c0.007-20.992,17.087-38.07,38.088-38.07c10.171,0.003,19.729,3.969,26.919,11.166    c7.188,7.197,11.145,16.762,11.143,26.936C102.258,84.611,85.178,101.691,64.193,101.691 M85.076,73.177    c-1.146-0.574-6.771-3.342-7.82-3.725c-1.051-0.382-1.811-0.573-2.574,0.573c-0.764,1.146-2.957,3.725-3.626,4.488    c-0.669,0.763-1.334,0.858-2.479,0.286c-1.145-0.574-4.833-1.782-9.203-5.683c-3.403-3.032-5.7-6.783-6.368-7.928    c-0.668-1.147-0.071-1.765,0.502-2.335c0.516-0.514,1.145-1.336,1.717-2.006c0.571-0.668,0.762-1.146,1.145-1.909    c0.381-0.763,0.191-1.431-0.095-2.004c-0.287-0.574-2.576-6.208-3.528-8.5c-0.93-2.231-1.874-1.929-2.575-1.964    c-0.668-0.033-1.432-0.041-2.194-0.041c-0.763,0-2.004,0.287-3.053,1.433c-1.048,1.146-4.006,3.915-4.006,9.549    c0,5.634,4.101,11.076,4.674,11.841c0.572,0.762,8.069,12.324,19.552,17.282c2.731,1.179,4.863,1.883,6.524,2.411    c2.741,0.871,5.238,0.748,7.209,0.454c2.2-0.329,6.772-2.77,7.728-5.444c0.953-2.674,0.953-4.965,0.666-5.441    C86.983,74.036,86.221,73.749,85.076,73.177" fill="#FFFFFF"/></g></g></svg>