<?xml version="1.0" encoding="UTF-8" standalone="no"?>
<!-- Created with Inkscape (http://www.inkscape.org/) -->

<svg
   xmlns:dc="http://purl.org/dc/elements/1.1/"
   xmlns:cc="http://creativecommons.org/ns#"
   xmlns:rdf="http://www.w3.org/1999/02/22-rdf-syntax-ns#"
   xmlns:svg="http://www.w3.org/2000/svg"
   xmlns="http://www.w3.org/2000/svg"
   xmlns:sodipodi="http://sodipodi.sourceforge.net/DTD/sodipodi-0.dtd"
   xmlns:inkscape="http://www.inkscape.org/namespaces/inkscape"
   width="338.66666mm"
   height="105.83334mm"
   viewBox="0 0 338.66666 105.83334"
   version="1.1"
   id="svg1914"
   inkscape:version="0.92.5 (2060ec1f9f, 2020-04-08)"
   sodipodi:docname="qr-code.svg">
  <defs
     id="defs1908">
    <clipPath
       clipPathUnits="userSpaceOnUse"
       id="clipPath16298">
      <rect
         style="fill:#aa0000;fill-opacity:0.65321799;stroke-width:0.233575"
         id="rect16300"
         width="64.187233"
         height="63.401119"
         x="341.94913"
         y="-229.50882" />
    </clipPath>
  </defs>
  <sodipodi:namedview
     id="base"
     pagecolor="#ffffff"
     bordercolor="#666666"
     borderopacity="1.0"
     inkscape:pageopacity="0.0"
     inkscape:pageshadow="2"
     inkscape:zoom="0.7"
     inkscape:cx="697.1"
     inkscape:cy="255.30333"
     inkscape:document-units="mm"
     inkscape:current-layer="layer1"
     showgrid="false"
     fit-margin-top="0"
     fit-margin-left="0"
     fit-margin-right="0"
     fit-margin-bottom="0"
     inkscape:window-width="1360"
     inkscape:window-height="697"
     inkscape:window-x="0"
     inkscape:window-y="0"
     inkscape:window-maximized="1" />
  <metadata
     id="metadata1911">
    <rdf:RDF>
      <cc:Work
         rdf:about="">
        <dc:format>image/svg+xml</dc:format>
        <dc:type
           rdf:resource="http://purl.org/dc/dcmitype/StillImage" />
        <dc:title></dc:title>
      </cc:Work>
    </rdf:RDF>
  </metadata>
  <g
     inkscape:label="Camada 1"
     inkscape:groupmode="layer"
     id="layer1"
     transform="translate(77.863091,-98.184517)">
    <rect
       inkscape:export-ydpi="96"
       inkscape:export-xdpi="96"
       y="98.184517"
       x="-77.863091"
       height="105.83334"
       width="338.66666"
       id="rect1075"
       style="opacity:1;fill:#000000;fill-opacity:1;stroke:none;stroke-width:0.49151012;stroke-miterlimit:4;stroke-dasharray:none;stroke-opacity:1"
       inkscape:export-filename="/home/nn/Documents/Web &amp; Design/Sites/profantonionasi.com.br/1.5/img/2.png" />
    <text
       xml:space="preserve"
       style="font-style:normal;font-weight:normal;font-size:19.67882919px;line-height:1.25;font-family:sans-serif;fill:#ffffff;fill-opacity:1;stroke:none;stroke-width:0.49197179"
       x="37.568111"
       y="148.25259"
       id="text18283"
       inkscape:export-filename="/home/nn/Documents/Web &amp; Design/Sites/profantonionasi.com.br/1.5/img/2.png"
       inkscape:export-xdpi="96"
       inkscape:export-ydpi="96"><tspan
         sodipodi:role="line"
         id="tspan18281"
         style="font-style:normal;font-variant:normal;font-weight:900;font-stretch:normal;font-family:'Source Sans Pro';-inkscape-font-specification:'Source Sans Pro Heavy';fill:#ffffff;stroke-width:0.49197179"
         x="37.568111"
         y="148.25259">Me paga um café?</tspan></text>
    <g
       id="g843"
       transform="matrix(1.3227848,0,0,1.3227848,-135.34974,-65.772539)">
      <rect
         ry="2.5208871"
         y="134.09227"
         x="61.610119"
         height="59.720238"
         width="59.720238"
         id="rect839"
         style="opacity:1;fill:#ffffff;fill-opacity:1;stroke:none;stroke-width:0.13762689;stroke-linecap:round;stroke-linejoin:bevel;stroke-miterlimit:4;stroke-dasharray:none;stroke-dashoffset:11.07401562;stroke-opacity:1;paint-order:normal" />
      <path
         inkscape:connector-curvature="0"
         id="path835"
         d="m 64.065052,187.44254 v -3.91502 h 3.91503 3.91502 v 3.91502 3.91503 h -3.91502 -3.91503 z m 6.71147,0 v -2.79645 h -2.79644 -2.79645 v 2.79645 2.79644 h 2.79645 2.79644 z m -4.47432,0 v -1.67787 h 1.67788 1.67786 v 1.67787 1.67787 h -1.67786 -1.67788 z m 6.71148,1.11858 v -2.79645 h 1.67787 1.67787 v -0.55929 -0.55929 h -1.67787 -1.67787 v -1.11857 -1.11859 h 0.55929 0.55929 v -0.55929 -0.55928 h 0.55929 0.55929 v -2.23716 -2.23716 h 2.23716 2.23715 v -0.55929 -0.55929 h -1.11857 -1.11858 v -0.55929 -0.55929 h -0.5593 -0.55928 v -0.55929 -0.55929 h -0.55929 -0.55929 v -0.55929 -0.55929 h -0.55929 -0.55929 v 1.11858 1.11858 h -0.55929 -0.55929 v 0.55929 0.55929 h 0.55929 0.55929 v 0.55929 0.55929 h -0.55929 -0.55929 v 0.55928 0.5593 h -1.11858 -1.11858 v -0.5593 -0.55928 h -0.55928 -0.5593 v 1.11858 1.11858 h 1.11858 1.11858 v 0.55928 0.5593 h -1.11858 -1.11858 v -0.5593 -0.55928 h -0.55929 -0.55929 v -2.23716 -2.23716 h -0.55928 -0.55929 v -0.55929 -0.55929 h -0.55929 -0.5593 v 1.11858 1.11858 h 0.5593 0.55929 v 1.67786 1.67788 h -0.55929 -0.5593 v 0.55928 0.5593 h 1.11859 1.11857 v 0.55928 0.5593 h -0.55928 -0.55929 v 0.55928 0.55929 h -1.67787 -1.67787 v -0.55929 -0.55928 h 0.55929 0.55929 v -1.67788 -1.67786 h -0.55929 -0.55929 v -1.67787 -1.67787 h 0.55929 0.55929 v -0.55929 -0.55929 h -0.55929 -0.55929 v -0.55929 -0.55929 h 0.55929 0.55929 v -0.55929 -0.55929 h -0.55929 -0.55929 v -1.11857 -1.11859 h 1.11858 1.11857 v 0.55929 0.5593 h 0.5593 0.55929 v -1.11859 -1.11857 h 0.55929 0.55928 v 1.11857 1.11859 h -0.55928 -0.55929 v 0.55928 0.55929 h 1.11857 1.11858 v -1.11857 -1.11859 h 0.5593 0.55928 v -0.55928 -0.55929 h 0.55929 0.55929 v -0.5593 -0.55929 h -1.67786 -1.67788 v -0.55928 -0.55929 h -0.55928 -0.55929 v -0.5593 -0.55928 h -0.55929 -0.5593 v 1.67787 1.67787 h -1.11857 -1.11858 v -0.5593 -0.55929 h 0.55929 0.55929 v -0.55928 -0.55929 h -0.55929 -0.55929 v -1.67787 -1.67787 h 0.55929 0.55929 v 1.11858 1.11858 h 0.55929 0.55928 v -1.11858 -1.11858 h 0.5593 0.55929 v -0.55929 -0.55929 h -1.67787 -1.67787 v -0.55929 -0.55929 h 1.11858 1.11857 v -0.55929 -0.55929 h -1.11857 -1.11858 v -0.55929 -0.55928 h 0.55929 0.55929 v -1.67788 -1.67786 h 0.55929 0.55928 v -0.5593 -0.55928 h 0.5593 0.55929 v -0.55929 -0.55929 h -1.11859 -1.11857 v 0.55929 0.55929 h -0.55929 -0.55929 v -1.11858 -1.11858 h 0.55929 0.55929 v -1.67787 -1.67787 h 0.55929 0.55928 v -0.55929 -0.55929 h -1.11857 -1.11858 v -0.55929 -0.55929 h 2.79645 2.79644 v 0.55929 0.55929 h -0.55929 -0.55929 v 0.55929 0.55929 h 0.55929 0.55929 v 1.11858 1.11858 h -0.55929 -0.55929 v 0.55929 0.55929 h 0.55929 0.55929 v 0.55928 0.5593 h 1.11858 1.11858 v -0.5593 -0.55928 h -0.55929 -0.55929 v -0.55929 -0.55929 h 0.55929 0.55929 v -0.55929 -0.55929 h -0.55929 -0.55929 v -0.55929 -0.55929 h 0.55929 0.55929 v 0.55929 0.55929 h 1.67787 1.67787 v -1.11858 -1.11858 h 0.55929 0.55929 v 1.11858 1.11858 h 0.55928 0.5593 v -2.79645 -2.79645 h -0.5593 -0.55928 v 1.11859 1.11857 h -0.55929 -0.55929 v -1.11857 -1.11859 h -0.55929 -0.55929 v 0.55929 0.5593 h -0.55929 -0.55929 v -1.11859 -1.11857 h 0.55929 0.55929 v -0.55929 -0.55929 h -0.55929 -0.55929 v -0.55929 -0.55929 h 0.55929 0.55929 v -0.55929 -0.55929 h -0.55929 -0.55929 v -0.55929 -0.55929 h 1.67787 1.67787 v -0.55929 -0.55929 h 0.55928 0.5593 v 0.55929 0.55929 h 0.55929 0.55929 v -0.55929 -0.55929 h 0.55928 0.55929 v 0.55929 0.55929 h 1.67787 1.67787 v -0.55929 -0.55929 h 0.55929 0.55929 v 1.11858 1.11858 h -1.11858 -1.11858 v 0.55929 0.55929 h -0.55929 -0.55928 v 0.55929 0.55929 h 0.55928 0.55929 v 0.55929 0.55929 h -0.55929 -0.55928 v -0.55929 -0.55929 h -1.11859 -1.11857 v 2.79644 2.79645 h 1.11857 1.11859 v -0.55929 -0.55929 h -0.5593 -0.55929 v -1.11857 -1.11859 h 0.55929 0.5593 v 0.55929 0.5593 h 0.55928 0.55929 v -0.5593 -0.55929 h 0.55929 0.55929 v -0.55928 -0.55929 h 0.55929 0.55929 v -0.55929 -0.55929 h -0.55929 -0.55929 v -0.55929 -0.55929 h 0.55929 0.55929 v 0.55929 0.55929 h 0.55929 0.55929 v -0.55929 -0.55929 h 0.55929 0.55929 v 0.55929 0.55929 h -0.55929 -0.55929 v 0.55929 0.55929 h 0.55929 0.55929 v 0.55929 0.55928 h 0.55929 0.55929 v -1.11857 -1.11858 h 1.67787 1.67786 v -0.55929 -0.55929 h -0.55929 -0.55929 v -0.55929 -0.55929 h -1.11857 -1.11858 v -0.55929 -0.55929 h 1.11858 1.11857 v 0.55929 0.55929 h 0.55929 0.55929 v -1.11858 -1.11858 h 0.55929 0.55929 v 1.11858 1.11858 h 0.55929 0.55929 v -0.55929 -0.55929 h 0.55929 0.55929 v -0.55929 -0.55929 h 1.11858 1.11858 v 0.55929 0.55929 h 0.55928 0.5593 v -0.55929 -0.55929 h 0.55928 0.55929 v 0.55929 0.55929 h -0.55929 -0.55928 v 0.55929 0.55929 h 0.55928 0.55929 v 0.55929 0.55929 h 0.55929 0.5593 v -0.55929 -0.55929 h 0.559278 0.55929 v -0.55929 -0.55929 h 0.55929 0.55929 v 0.55929 0.55929 h -0.55929 -0.55929 v 0.55929 0.55929 h 0.55929 0.55929 v 0.55929 0.55929 h -0.55929 -0.55929 v -0.55929 -0.55929 h -0.55929 -0.559278 v 0.55929 0.55929 h -0.5593 -0.55929 v 0.55929 0.55929 h 0.55929 0.5593 v 0.55929 0.55928 h 0.559278 0.55929 v -0.55928 -0.55929 h 2.23716 2.23716 v 1.11857 1.11859 h 0.55929 0.55929 v -1.11859 -1.11857 h 0.55928 0.5593 v 1.67786 1.67787 h 0.55929 0.55928 v -1.11857 -1.11859 h 0.55929 0.5593 v 1.11859 1.11857 h 0.55928 0.55929 v 0.55929 0.55929 h 0.55929 0.55929 v -0.55929 -0.55929 h 0.55929 0.55929 v 0.55929 0.55929 h 0.55929 0.55929 v -0.55929 -0.55929 h 0.55929 0.55929 v 1.11858 1.11858 h 0.55929 0.55929 v 0.55929 0.55929 h 0.55929 0.55929 v -0.55929 -0.55929 h 0.55929 0.55929 v 0.55929 0.55929 h -0.55929 -0.55929 v 1.67787 1.67787 h 0.55929 0.55929 v 1.67786 1.67788 h -0.55929 -0.55929 v -1.67788 -1.67786 h -0.55929 -0.55929 v -0.5593 -0.55928 h -0.55929 -0.55929 v 1.11858 1.11858 h -0.55929 -0.55929 v 0.55928 0.5593 h 0.55929 0.55929 v 2.23715 2.23716 h 0.55929 0.55929 v -1.11857 -1.11859 h 1.11858 1.11858 v 1.11859 1.11857 h -1.11858 -1.11858 v 0.55929 0.55929 h 0.55929 0.55929 v 0.55929 0.55929 h 0.55929 0.55929 v 1.67787 1.67787 h -0.55929 -0.55929 v -1.67787 -1.67787 h -0.55929 -0.55929 v 0.55929 0.55929 h -1.11858 -1.11858 v 0.55929 0.55929 h 1.11858 1.11858 v 0.55929 0.55929 h -0.55929 -0.55929 v 0.55928 0.5593 h -0.55929 -0.55929 v 0.55929 0.55928 h 0.55929 0.55929 v 0.55929 0.5593 h 1.11858 1.11858 v 1.11857 1.11859 h 0.55929 0.55929 v 1.67786 1.67787 h -0.55929 -0.55929 v -1.67787 -1.67786 h -0.55929 -0.55929 v -0.5593 -0.55929 h -0.55929 -0.55929 v 0.55929 0.5593 h -0.55929 -0.55929 v -0.5593 -0.55929 h -0.55929 -0.55929 v 1.11859 1.11857 h 0.55929 0.55929 v 1.11858 1.11858 h 0.55929 0.55929 v -0.55929 -0.55929 h 0.55929 0.55929 v 0.55929 0.55929 h -0.55929 -0.55929 v 0.55929 0.55929 h 1.67787 1.67787 v 0.55929 0.55929 h -0.55929 -0.55929 v 1.67786 1.67788 h 0.55929 0.55929 v 0.55928 0.5593 h -0.55929 -0.55929 v -0.5593 -0.55928 h -0.55929 -0.55929 v 0.55928 0.5593 h -0.55929 -0.55929 v -0.5593 -0.55928 h -0.55929 -0.55929 v -0.55929 -0.55929 h -0.55929 -0.55929 v 1.11858 1.11858 h 0.55929 0.55929 v 0.55928 0.5593 h 1.11858 1.11858 v 0.55928 0.55929 h -1.11858 -1.11858 v 0.55929 0.5593 h 2.23716 2.23716 v 1.67786 1.67787 h -1.67787 -1.67787 v 0.55929 0.55929 h 0.55929 0.55929 v 0.55929 0.55929 h -0.55929 -0.55929 v -0.55929 -0.55929 h -2.23716 -2.23716 v -0.55929 -0.55929 h -0.55929 -0.55928 v 0.55929 0.55929 h -1.11859 -1.11857 v -0.55929 -0.55929 h 0.55929 0.55928 v -1.67787 -1.67786 h -0.55928 -0.55929 v -1.11859 -1.11857 h -0.5593 -0.55928 v 1.67786 1.67787 h -0.55929 -0.55929 v 1.11858 1.11858 h 0.55929 0.55929 v 0.55929 0.55929 h -1.67787 -1.67787 v 1.11858 1.11857 h 0.55929 0.55929 v -0.55928 -0.55929 h 0.55929 0.55929 v 0.55929 0.55928 h 1.11858 1.11858 v -0.55928 -0.55929 h 0.55929 0.55928 v 0.55929 0.55928 h -0.55928 -0.55929 v 0.5593 0.55929 h -2.23716 -2.23716 v -0.55929 -0.5593 h -0.55929 -0.55929 v 0.5593 0.55929 h -0.55929 -0.55929 v -0.55929 -0.5593 h -1.677868 -1.67786 v 0.5593 0.55929 h -0.5593 -0.55928 v -0.55929 -0.5593 h -0.55929 -0.55929 v 0.5593 0.55929 h -2.79645 -2.79645 v -0.55929 -0.5593 h -0.55928 -0.55929 v 0.5593 0.55929 h -2.23716 -2.23716 v -1.11859 -1.11857 h 1.11858 1.11858 v -0.55929 -0.55929 h -1.67787 -1.67787 v 1.67787 1.67787 h -0.55929 -0.55929 v -1.11859 -1.11857 h -0.55929 -0.55928 v -0.55929 -0.55929 h 0.55928 0.55929 v -0.55929 -0.55929 h -0.55929 -0.55928 v -0.55929 -0.55929 h 0.55928 0.55929 v 0.55929 0.55929 h 1.11858 1.11858 v -0.55929 -0.55929 h -0.55929 -0.55929 v -0.55929 -0.55929 h -1.11858 -1.11857 v -1.11857 -1.11859 h 0.55928 0.55929 v -0.55929 -0.55928 h -0.55929 -0.55928 v -0.5593 -0.55928 h 0.55928 0.55929 v 0.55928 0.5593 h 0.55929 0.55929 v -0.5593 -0.55928 h 1.11858 1.11858 v -0.5593 -0.55928 h -0.55929 -0.55929 v -0.55929 -0.55929 h -0.55929 -0.55929 v -0.5593 -0.55928 h 0.55929 0.55929 v 0.55928 0.5593 h 0.55929 0.55929 v -1.11858 -1.11858 h 0.55929 0.55929 v 1.11858 1.11858 h -0.55929 -0.55929 v 0.55929 0.55929 h 0.55929 0.55929 v 0.55928 0.5593 h -0.55929 -0.55929 v 0.55928 0.5593 h 1.11858 1.11858 v -0.5593 -0.55928 h 1.67787 1.67786 v -1.11858 -1.11858 h -0.55929 -0.55929 v 0.55929 0.55929 h -1.11857 -1.11858 v -2.23716 -2.23716 h 1.11858 1.11857 v -0.55929 -0.55929 h -0.55928 -0.55929 v -1.11858 -1.11858 h 0.55929 0.55928 v -0.55929 -0.55928 h 0.55929 0.55929 v -0.5593 -0.55929 h -1.11858 -1.11857 v 0.55929 0.5593 h -0.5593 -0.55928 v 1.67786 1.67787 h -1.67787 -1.67787 v 1.11858 1.11858 h -0.55929 -0.55929 v -1.11858 -1.11858 h -0.55929 -0.55929 v 0.55929 0.55929 h -0.55929 -0.55928 v 1.67787 1.67787 h 0.55928 0.55929 v 0.55929 0.55929 h -0.55929 -0.55928 v -0.55929 -0.55929 h -1.11859 -1.11857 v 0.55929 0.55929 h 0.55928 0.55929 v 1.67786 1.67787 h -0.55929 -0.55928 v 0.55929 0.5593 h -1.11858 -1.11858 v 0.55928 0.55929 h 0.55928 0.5593 v 0.55929 0.55929 h 0.55929 0.55929 v -0.55929 -0.55929 h 0.55928 0.55929 v 0.55929 0.55929 h -0.55929 -0.55928 v 0.55929 0.55929 h 0.55928 0.55929 v 0.55929 0.55929 h -0.55929 -0.55928 v -0.55929 -0.55929 h -0.55929 -0.55929 v 0.55929 0.55929 h -0.5593 -0.55928 v 0.55929 0.55929 h 0.55928 0.5593 v 0.55929 0.55928 h -0.5593 -0.55928 v -0.55928 -0.55929 h -1.11858 -1.11858 v 0.55929 0.55928 h 0.55929 0.55929 v 0.5593 0.55929 h -1.11858 -1.11858 z m 22.37158,0.55929 v -1.11858 h 0.55929 0.55929 v 0.55929 0.55929 h 2.79644 2.796448 v -0.55929 -0.55929 h 0.55929 0.55929 v -0.55929 -0.55929 h -0.55929 -0.55929 v 0.55929 0.55929 h -2.237148 -2.23716 v -0.55929 -0.55929 h 1.67786 1.677868 v -0.55929 -0.55929 h -2.796448 -2.79644 v -0.55929 -0.55929 h 0.55929 0.55929 v -0.55929 -0.55928 h 0.55928 0.5593 v 0.55928 0.55929 h 2.23716 2.237148 v 0.55929 0.55929 h 0.55929 0.55929 v -0.55929 -0.55929 h 0.55929 0.55929 v -0.55929 -0.55928 h -0.55929 -0.55929 v -1.11859 -1.11857 h 0.55929 0.55929 v -0.5593 -0.55928 h 0.55929 0.55929 v 0.55928 0.5593 h 0.55929 0.55929 v -0.5593 -0.55928 h 0.55928 0.5593 v -1.11858 -1.11858 h -0.5593 -0.55928 v -0.5593 -0.55928 h -0.55929 -0.55929 v -1.11858 -1.11858 h 1.67786 1.67787 v 0.55929 0.55929 h -0.55928 -0.55929 v 0.55929 0.55929 h 1.11857 1.11859 v 0.55928 0.5593 h -0.5593 -0.55929 v 1.11858 1.11858 h 0.55929 0.5593 v 0.55928 0.5593 h 1.67786 1.67787 v -0.5593 -0.55928 h -1.67787 -1.67786 v -0.5593 -0.55928 h 0.55928 0.55929 v -1.11858 -1.11858 h -0.55929 -0.55928 v -1.11858 -1.11858 h 1.11857 1.11858 v 1.67787 1.67787 h 0.55929 0.55929 v -1.11858 -1.11858 h 0.55929 0.55929 v -1.11858 -1.11858 h -1.67787 -1.67787 v -0.55929 -0.55929 h 0.55929 0.55929 v -0.55929 -0.55929 h -0.55929 -0.55929 v -0.55929 -0.55928 h 0.55929 0.55929 v -0.5593 -0.55929 h 0.55929 0.55929 v -0.55928 -0.55929 h 0.55929 0.55929 v 0.55929 0.55928 h 0.55929 0.55929 v -0.55928 -0.55929 h -0.55929 -0.55929 v -0.5593 -0.55929 h -1.11858 -1.11858 v 0.55929 0.5593 h -0.55929 -0.55929 v -0.5593 -0.55929 h -0.55929 -0.55928 v 0.55929 0.5593 h -0.5593 -0.55929 v 1.67786 1.67787 h 0.55929 0.5593 v 1.67787 1.67787 h -0.5593 -0.55929 v -0.55929 -0.55929 h -0.55928 -0.55929 v -1.11858 -1.11858 h -0.5593 -0.55928 v -0.55929 -0.55928 h 0.55928 0.5593 v -0.5593 -0.55929 h -0.5593 -0.55928 v -0.55928 -0.55929 h 0.55928 0.5593 v -0.5593 -0.55929 h 0.55929 0.55928 v -2.79644 -2.79645 h 0.55929 0.5593 v -0.55929 -0.55929 h 0.55928 0.55929 v -0.55929 -0.55929 h -0.55929 -0.55928 v -0.55929 -0.55928 h 1.11857 1.11858 v -0.5593 -0.55929 h -1.11858 -1.11857 v -0.55929 -0.55928 h 0.55928 0.55929 v -0.5593 -0.55928 h -0.55929 -0.55928 v -0.5593 -0.55928 h -1.11859 -1.11857 v -1.11858 -1.11858 h -0.5593 -0.55928 v -0.55929 -0.55929 h 0.55928 0.5593 v -0.55929 -0.55929 h 1.11857 1.11859 v 0.55929 0.55929 h 0.55928 0.55929 v -0.55929 -0.55929 h 0.55929 0.55929 v -0.55929 -0.55929 h 0.55929 0.55929 v -0.55929 -0.55929 h -0.55929 -0.55929 v 0.55929 0.55929 h -0.55929 -0.55929 v 0.55929 0.55929 h -0.55929 -0.55928 v -1.11858 -1.11858 h -1.11859 -1.11857 v -0.55929 -0.55929 h -1.11858 -1.11858 v 1.11858 1.11858 h 1.11858 1.11858 v 0.55929 0.55929 h -1.67787 -1.67787 v -0.55929 -0.55929 h -0.55929 -0.55929 v -1.11858 -1.11858 h -0.55929 -0.55929 v -1.11857 -1.11859 h -0.55929 -0.55929 v 1.11859 1.11857 h -1.118568 -1.11859 v 0.55929 0.55929 h 0.55929 0.5593 v 0.55929 0.55929 h -1.11859 -1.11857 v -2.23716 -2.23716 h 0.55928 0.55929 v 0.55929 0.5593 h 0.55929 0.5593 v -0.5593 -0.55929 h -0.5593 -0.55929 v -0.55928 -0.55929 h -0.55929 -0.55928 v -0.55929 -0.55929 h 0.55928 0.55929 v -0.55929 -0.55929 h -2.23715 -2.23716 v -0.55929 -0.55929 h -0.55929 -0.55929 v 1.11858 1.11858 h 0.55929 0.55929 v 1.67787 1.67787 h 0.55929 0.55929 v -1.11859 -1.11857 h 0.55929 0.55929 v 1.67786 1.67787 h -0.55929 -0.55929 v 0.55929 0.55929 h 0.55929 0.55929 v 0.55929 0.55929 h 0.55928 0.5593 v 1.11858 1.11858 h 0.55928 0.55929 v 1.11858 1.11858 h -0.55929 -0.55928 v -0.5593 -0.55928 h -0.5593 -0.55928 v -0.55929 -0.55929 h -0.55929 -0.55929 v 0.55929 0.55929 h -1.11858 -1.11858 v -1.67787 -1.67787 h 0.55929 0.55929 v -0.55929 -0.55929 h -0.55929 -0.55929 v 0.55929 0.55929 h -0.55929 -0.55929 v -0.55929 -0.55929 h -3.91503 -3.91502 v -0.55929 -0.55929 h -0.55929 -0.55929 v -0.55929 -0.55928 h 0.55929 0.55929 v -0.5593 -0.55929 h -0.55929 -0.55929 v 0.55929 0.5593 h -0.55929 -0.55929 v 1.11857 1.11858 h -0.55929 -0.55928 v 0.55929 0.55929 h -1.11859 -1.11857 v 0.55929 0.55929 h 0.55928 0.55929 v 0.55929 0.55929 h -1.67786 -1.67787 v -0.55929 -0.55929 h -0.55929 -0.55929 v 0.55929 0.55929 h -0.55929 -0.55929 v 0.55929 0.55929 h -0.55929 -0.55929 v -0.55929 -0.55929 h -0.55929 -0.55929 v 0.55929 0.55929 h 0.55929 0.55929 v 1.11858 1.11858 h -2.79644 -2.79645 v 0.55928 0.5593 h -0.55929 -0.5593 v 0.55928 0.5593 h 0.5593 0.55929 v -0.5593 -0.55928 h 0.55929 0.55928 v 0.55928 0.5593 h 1.11858 1.11858 v 0.55928 0.55929 h -1.67787 -1.67786 v 0.55929 0.5593 h -0.55929 -0.5593 v 0.55928 0.55929 h 0.5593 0.55929 v 0.55929 0.55929 h 0.55929 0.55928 v -1.11858 -1.11857 h 1.11858 1.11858 v 0.55928 0.55929 h -0.55928 -0.5593 v 1.11858 1.11858 h 1.11858 1.11858 v -0.55929 -0.55929 h -0.55929 -0.55929 v -0.55929 -0.55929 h 0.55929 0.55929 v -0.55929 -0.55928 h 0.55929 0.55929 v 1.11857 1.11858 h 0.55929 0.55929 v -1.11858 -1.11857 h -0.55929 -0.55929 v -1.11859 -1.11857 h -1.11858 -1.11858 v -0.5593 -0.55928 h 2.23716 2.23716 v 0.55928 0.5593 h 0.55929 0.55929 v 0.55928 0.55929 h 0.55928 0.5593 v 0.55929 0.5593 h -1.11858 -1.11858 v 0.55928 0.55929 h 1.11858 1.11858 v -0.55929 -0.55928 h 0.55929 0.55929 v 0.55928 0.55929 h 0.55928 0.55929 v -0.55929 -0.55928 h -0.55929 -0.55928 v -1.11859 -1.11857 h 1.67786 1.67787 v 1.67786 1.67787 h -0.55929 -0.55928 v 0.55929 0.55929 h -2.23716 -2.23716 v 1.67787 1.67787 h -0.55929 -0.55929 v -0.55929 -0.55929 h -0.55929 -0.55929 v 0.55929 0.55929 h 0.55929 0.55929 v 0.55929 0.55929 h -0.55929 -0.55929 v 1.11858 1.11857 h -0.55929 -0.55929 v 0.55929 0.5593 h -0.55929 -0.55929 v 0.55929 0.55928 h -0.55929 -0.55929 v 0.55929 0.5593 h 0.55929 0.55929 v 0.55928 0.55929 h -0.55929 -0.55929 v 0.55929 0.55929 h -1.67787 -1.67786 v 0.55929 0.55929 h 1.11857 1.11858 v 0.55929 0.55929 h 1.67787 1.67787 v -1.11858 -1.11858 h 0.55929 0.55929 v -0.55929 -0.55929 h 1.67787 1.67787 v -0.55929 -0.55928 h 0.55929 0.55929 v 1.67786 1.67787 h 1.67786 1.67787 v -1.11858 -1.11858 h -0.55929 -0.55928 v -0.55929 -0.55928 h 0.55928 0.55929 v -0.5593 -0.55929 h 1.11858 1.11858 v -0.55928 -0.55929 h -1.11858 -1.11858 v 0.55929 0.55928 h -0.55929 -0.55928 v -1.67787 -1.67786 h -1.11859 -1.11857 v -0.5593 -0.55928 h 1.67786 1.67787 v 1.11858 1.11857 h 1.11858 1.11858 v -0.55928 -0.55929 h 0.55929 0.55929 v 1.67786 1.67787 h 1.67787 1.67787 v -0.55928 -0.55929 h -0.5593 -0.55928 v -1.67787 -1.67787 h -1.67787 -1.67787 v -2.23716 -2.23716 h 0.55929 0.55929 v 0.55929 0.55929 h 0.55929 0.55929 v 0.55929 0.55929 h -0.55929 -0.55929 v 0.55929 0.55929 h 1.67787 1.67787 v -0.55929 -0.55929 h -0.5593 -0.55928 v -1.67787 -1.67787 h 1.11858 1.11857 v 0.55929 0.55929 h -0.55928 -0.55929 v 0.55929 0.55929 h 1.11857 1.11858 v -1.11858 -1.11858 h 0.55929 0.55929 v 1.11858 1.11858 h 1.11858 1.11858 v 1.11858 1.11858 h 0.55929 0.55929 v 1.67786 1.67787 h 0.55929 0.55929 v 0.55929 0.5593 h -1.11858 -1.11858 v 0.55929 0.55928 h -0.55929 -0.55929 v -0.55928 -0.55929 h -1.11858 -1.11858 v 0.55929 0.55928 h 1.11858 1.11858 v 1.11859 1.11857 h -0.55929 -0.55929 v 0.55929 0.55929 h -1.11858 -1.11858 v 0.55929 0.55929 h 2.23716 2.23716 v 0.55929 0.55929 h -1.11858 -1.11858 v 0.55929 0.55929 h 2.23716 2.23716 v -0.55929 -0.55929 h 0.55928 0.5593 v 0.55929 0.55929 h 0.55928 0.55929 v 1.67786 1.67788 h -1.11857 -1.11858 v -1.11858 -1.11858 h -2.79645 -2.79645 v -1.11858 -1.11858 h -0.55929 -0.55929 v 0.55929 0.55929 h -0.55928 -0.55929 v 0.55929 0.55929 h 1.11857 1.11858 v 0.55928 0.5593 h 1.67787 1.67787 v 0.55929 0.55929 h -0.55929 -0.55929 v 0.55928 0.5593 h -0.55929 -0.55929 v 0.55928 0.5593 h 0.55929 0.55929 v -0.5593 -0.55928 h 0.55929 0.55929 v 0.55928 0.5593 h 0.55929 0.55929 v 1.67786 1.67787 h -0.55929 -0.55929 v 0.55929 0.55929 h 0.55929 0.55929 v 0.55929 0.55929 h -2.23716 -2.23716 v 0.55929 0.55929 h -0.55929 -0.55929 v -0.55929 -0.55929 h -1.11857 -1.11858 v -1.11858 -1.11858 h 0.55928 0.5593 v -0.55929 -0.55928 h -0.5593 -0.55928 v -0.5593 -0.55929 h -1.67787 -1.67787 v -0.55929 -0.55928 h -0.55929 -0.55929 v 0.55928 0.55929 h -0.55929 -0.55929 v 0.55929 0.5593 h 0.55929 0.55929 v 0.55928 0.55929 h 0.55929 0.55929 v -0.55929 -0.55928 h 0.55929 0.55929 v 1.67786 1.67787 h 1.11858 1.11858 v 0.55929 0.55929 h 0.55928 0.5593 v 0.55929 0.55929 h 0.55929 0.55928 v 0.55929 0.55928 h 2.79645 2.79645 z m -4.47432,-0.55929 v -0.55929 h 0.55929 0.55929 v 0.55929 0.55929 h -0.55929 -0.55929 z m 11.185788,-4.47432 v -0.55928 h -0.55929 -0.55929 v -1.11859 -1.11857 h -1.118568 -1.11859 v 1.11857 1.11859 h -0.55929 -0.55928 v -1.67788 -1.67786 h 1.67786 1.677868 v -0.5593 -0.55928 h 1.11858 1.11858 v 0.55928 0.5593 h -0.55929 -0.55929 v 1.67786 1.67788 h 0.55929 0.55929 v 0.55928 0.55929 h -0.55929 -0.55929 z m -19.015838,-1.11858 v -0.55929 h 0.55929 0.55929 v 0.55929 0.5593 h -0.55929 -0.55929 z m 12.30437,-2.23716 v -0.55928 h -0.55929 -0.55929 v -0.5593 -0.55928 h 1.11858 1.11858 v 1.11858 1.11858 h -0.55929 -0.55929 z m 10.067208,-1.11858 v -0.55928 h -0.55929 -0.55929 v -1.11858 -1.11858 h -0.55929 -0.55929 v 0.55928 0.5593 h -1.11858 -1.11858 v -0.5593 -0.55928 h -0.55929 -0.559278 v -0.55929 -0.55929 h -0.5593 -0.55929 v -0.55929 -0.55929 h -0.55929 -0.55928 v -0.55929 -0.55929 h 1.11857 1.11859 v 1.11858 1.11858 h 1.118568 1.11858 v -0.55929 -0.55929 h -0.55929 -0.55929 v -0.55929 -0.55929 h 0.55929 0.55929 v 0.55929 0.55929 h 0.55929 0.55929 v -0.55929 -0.55929 h 0.55929 0.55929 v -0.55929 -0.55929 h 0.55929 0.55929 v 0.55929 0.55929 h -0.55929 -0.55929 v 1.67787 1.67787 h 0.55929 0.55929 v 0.55928 0.5593 h 0.55929 0.55929 v 1.11858 1.11858 h -0.55929 -0.55929 z m -2.23716,-3.35573 v -0.55929 h -0.55929 -0.55929 v 0.55929 0.55929 h 0.55929 0.55929 z m -32.438788,-3.35574 v -0.55929 h 0.55929 0.55929 v 0.55929 0.55929 h -0.55929 -0.55929 z m 23.49016,0 v -0.55929 h -0.55929 -0.55929 v -0.55929 -0.55929 h 0.55929 0.55929 v 0.55929 0.55929 h 0.55929 0.55929 v -0.55929 -0.55929 h 0.55929 0.55929 v -0.55929 -0.55928 h 0.55928 0.5593 v -0.5593 -0.55929 h -0.5593 -0.55928 v -0.55928 -0.55929 h 0.55928 0.5593 v -0.5593 -0.55929 h -0.5593 -0.55928 v -0.55928 -0.55929 h 0.55928 0.5593 v -0.5593 -0.55928 h 0.55928 0.55929 v 0.55928 0.5593 h 0.55929 0.5593 v 0.55929 0.55928 h 1.118568 1.11858 v -0.55928 -0.55929 h -0.55929 -0.55929 v -1.11858 -1.11858 h -2.796448 -2.79644 v -0.55929 -0.55929 h 2.79644 2.796448 v -0.55929 -0.55929 h -0.55929 -0.559278 v -0.55929 -0.55929 h 0.559278 0.55929 v 0.55929 0.55929 h 1.11858 1.11858 v -0.55929 -0.55929 h -0.55929 -0.55929 v -0.55929 -0.55929 h 0.55929 0.55929 v -0.55929 -0.55928 h -0.55929 -0.55929 v -0.5593 -0.55929 h -0.55929 -0.55929 v -0.55929 -0.55928 h 0.55929 0.55929 v -1.67788 -1.67786 h -0.55929 -0.55929 v 1.11858 1.11858 h -1.118568 -1.11859 v 1.11858 1.11857 h -0.55929 -0.55928 v 0.55929 0.5593 h 1.67786 1.677868 v 0.55928 0.55929 h -1.118568 -1.11859 v 1.11858 1.11858 h -1.11857 -1.11858 v -0.55929 -0.55929 h 0.55928 0.5593 v -0.55929 -0.55929 h -1.11858 -1.11858 v 0.55929 0.55929 h -1.11858 -1.11858 v -0.55929 -0.55929 h -0.55929 -0.55929 v -1.11857 -1.11859 h -0.55929 -0.55929 v -0.55929 -0.55928 h -0.55929 -0.55929 v -0.5593 -0.55928 h -0.55928 -0.55929 v 0.55928 0.5593 h -2.23716 -2.23716 v 1.11857 1.11859 h -0.55929 -0.55929 v -1.11859 -1.11857 h -0.55929 -0.55929 v -1.11858 -1.11858 h -0.55929 -0.55928 v -0.55929 -0.55929 h 0.55928 0.55929 v -0.5593 -0.55928 h -0.55929 -0.55928 v -1.67787 -1.67787 h 1.11857 1.11858 v -0.55929 -0.55929 h 0.55929 0.55929 v 0.55929 0.55929 h 0.55929 0.55929 v 1.67787 1.67787 h 1.11858 1.11858 v -0.55929 -0.55929 h 1.11858 1.11857 v -0.55929 -0.55929 h -1.11857 -1.11858 v -0.55929 -0.55929 h 1.11858 1.11857 v 0.55929 0.55929 h 0.55929 0.55929 v -0.55929 -0.55929 h 0.55929 0.55929 v 0.55929 0.55929 h -0.55929 -0.55929 v 0.55929 0.55929 h 0.55929 0.55929 v 1.11858 1.11858 h 1.67787 1.67787 v -0.5593 -0.55928 h 0.55929 0.55929 v 0.55928 0.5593 h 0.55928 0.5593 v 0.55929 0.55929 h 1.11857 1.11859 v -0.55929 -0.55929 h 0.559278 0.55929 v -0.5593 -0.55928 h 0.55929 0.55929 v -0.55929 -0.55929 h -1.67787 -1.677868 v -0.55929 -0.55929 h 0.55929 0.5593 v -0.55929 -0.55929 h 1.118568 1.11858 v 1.11858 1.11858 h 0.55929 0.55929 v -0.55929 -0.55929 h 0.55929 0.55929 v 0.55929 0.55929 h 0.55929 0.55929 v 0.55929 0.55929 h 0.55929 0.55929 v 0.55928 0.5593 h -0.55929 -0.55929 v 0.55929 0.55929 h 0.55929 0.55929 v 0.55928 0.5593 h 1.67787 1.67787 v 0.55928 0.5593 h -1.67787 -1.67787 v -0.5593 -0.55928 h -0.55929 -0.55929 v 1.11858 1.11857 h 1.11858 1.11858 v 0.55929 0.5593 h 0.55929 0.55928 v -0.5593 -0.55929 h 0.55929 0.5593 v 0.55929 0.5593 h -0.5593 -0.55929 v 0.55928 0.55929 h -0.55928 -0.55929 v 0.55929 0.55929 h -0.5593 -0.55928 v 0.55929 0.55929 h -0.55929 -0.55929 v 2.23716 2.23716 h 1.11858 1.11858 v 0.55929 0.55928 h -1.67787 -1.67787 v 0.55929 0.5593 h 0.55929 0.55929 v 1.67786 1.67787 h -0.55929 -0.55929 v -1.67787 -1.67786 h -0.55929 -0.55929 v 0.55929 0.55928 h -1.11858 -1.11858 v -0.55928 -0.55929 h -1.118568 -1.11859 v 0.55929 0.55928 h 0.55929 0.5593 v 0.55929 0.5593 h 1.677858 1.67787 v 0.55928 0.55929 h -0.55929 -0.55929 v 0.55929 0.55929 h -2.237148 -2.23716 v -0.55929 -0.55929 h -0.5593 -0.55928 v 0.55929 0.55929 h -0.55929 -0.55929 v 0.55929 0.55929 h -0.55929 -0.55929 z m 4.47431,-2.23716 v -0.55928 h -0.55929 -0.55928 v 0.55928 0.55929 h 0.55928 0.55929 z m 4.474318,-3.35574 v -0.55929 h 0.55929 0.55929 v -1.11857 -1.11858 h -1.11858 -1.11858 v 0.55928 0.5593 h 0.55929 0.55929 v 0.55929 0.55928 h -0.55929 -0.55929 v 0.55929 0.5593 h 0.55929 0.55929 z m -4.474318,-1.11857 v -0.55929 h -0.55929 -0.55928 v 0.55929 0.55928 h 0.55928 0.55929 z m 4.474318,-3.35574 v -0.55929 h 0.55929 0.55929 v -0.55929 -0.55929 h -0.55929 -0.55929 v 0.55929 0.55929 h -1.11858 -1.11858 v 0.55929 0.55929 h 1.11858 1.11858 z m 1.11858,-3.35574 v -0.55929 h 1.67787 1.67787 v -0.55929 -0.55928 h -1.67787 -1.67787 v -1.11859 -1.11857 h -1.11858 -1.11858 v 0.55928 0.55929 h 0.55929 0.55929 v 0.55929 0.5593 h 0.55929 0.55929 v 0.55928 0.55929 h -0.55929 -0.55929 v 0.55929 0.55929 h 0.55929 0.55929 z m -8.948628,-1.11858 v -0.55928 h 0.55929 0.55929 v -0.5593 -0.55929 h 0.55928 0.5593 v -1.67787 -1.67786 h -0.5593 -0.55928 v -0.55929 -0.55929 h -0.55929 -0.55929 v 0.55929 0.55929 h 0.55929 0.55929 v 0.55928 0.5593 h -0.55929 -0.55929 v 0.55928 0.5593 h -0.55929 -0.55929 v -1.11858 -1.11858 h -0.55929 -0.55929 v 0.55928 0.5593 h -0.55929 -0.55929 v 1.11858 1.11857 h 1.67787 1.67787 v 0.55929 0.5593 h -1.11858 -1.11858 v 0.55928 0.55929 h 1.11858 1.11858 z m 0,-2.23716 v -0.55928 h 0.55929 0.55929 v 0.55928 0.55929 h -0.55929 -0.55929 z m -11.18579,-1.11858 v -0.55928 h 0.55929 0.55929 v -0.5593 -0.55928 h 0.55929 0.55929 v -0.55929 -0.55929 h -0.55929 -0.55929 v 0.55929 0.55929 h -0.55929 -0.55929 v -0.55929 -0.55929 h -0.55929 -0.55929 v 0.55929 0.55929 h 0.55929 0.55929 v 0.55928 0.5593 h -0.55929 -0.55929 v 0.55928 0.5593 h 0.55929 0.55929 z m 4.47432,-1.11858 v -0.55928 h -0.5593 -0.55928 v 0.55928 0.5593 h 0.55928 0.5593 z m 2.23715,0 v -0.55928 h 0.55929 0.55929 v -0.55929 -0.55929 h -1.11858 -1.11858 v 1.11858 1.11858 h 0.55929 0.55929 z m 13.422948,-0.55928 v -1.11858 h 0.55929 0.55929 v -0.5593 -0.55928 h -0.55929 -0.55929 v -0.55929 -0.55929 h -0.55929 -0.55929 v 0.55929 0.55929 h -0.55929 -0.55929 v 0.55928 0.5593 h 0.55929 0.55929 v 1.11858 1.11858 h 0.55929 0.55929 z m -1.11858,-1.67788 v -0.55928 h 0.55929 0.55929 v 0.55928 0.5593 h -0.55929 -0.55929 z m -14.541518,0 v -0.55928 h -0.5593 -0.55928 v 0.55928 0.5593 h 0.55928 0.5593 z m -4.47432,-1.11857 v -0.55929 h -0.55929 -0.55929 v -0.55929 -0.55929 h 0.55929 0.55929 v -0.55929 -0.55929 h -0.55929 -0.55929 v 0.55929 0.55929 h -0.55929 -0.55929 v 1.11858 1.11858 h 1.11858 1.11858 z m 6.71147,0 v -0.55929 h -0.55929 -0.55929 v 0.55929 0.55929 h 0.55929 0.55929 z m -11.18579,21.253 v -0.55929 h 0.55929 0.5593 v 0.55929 0.55929 h -0.5593 -0.55929 z m -6.71147,-1.11858 v -0.55928 h -0.55929 -0.55929 v -0.5593 -0.55929 h 0.55929 0.55929 v -0.55928 -0.55929 h 1.11858 1.11858 v -1.67787 -1.67787 h 0.55929 0.55929 v -0.55929 -0.55929 h 0.55928 0.5593 v 0.55929 0.55929 h -0.5593 -0.55928 v 1.67787 1.67787 h -0.55929 -0.55929 v 0.55929 0.55928 h -1.11858 -1.11858 v 0.55929 0.5593 h 0.55929 0.55929 v 0.55928 0.55929 h -0.55929 -0.55929 z m 3.35574,-1.11858 v -0.55929 h 0.55928 0.5593 v -1.67787 -1.67786 h 0.55929 0.55929 v 0.55929 0.55928 h 0.55928 0.55929 v 0.55929 0.5593 h -0.55929 -0.55928 v 0.55929 0.55928 h 0.55928 0.55929 v 0.55929 0.5593 h -0.55929 -0.55928 v -0.5593 -0.55929 h -0.55929 -0.55929 v 0.55929 0.5593 h -0.5593 -0.55928 z m 17.89726,0 v -0.55929 h 0.55929 0.55929 v 0.55929 0.5593 h -0.55929 -0.55929 z m 15.660108,-0.55929 v -1.11857 h 0.55928 0.55929 v 1.11857 1.11859 h -0.55929 -0.55928 z m -26.845898,-3.91503 v -0.55928 h -0.55929 -0.55929 v -0.55929 -0.55929 h -0.55929 -0.55928 v -0.55929 -0.55929 h -0.5593 -0.55929 v 0.55929 0.55929 h -0.55929 -0.55928 v -0.55929 -0.55929 h 0.55928 0.55929 v -0.55929 -0.55929 h 0.55929 0.5593 v -0.55929 -0.55929 h 0.55928 0.55929 v 0.55929 0.55929 h -0.55929 -0.55928 v 0.55929 0.55929 h 0.55928 0.55929 v 0.55929 0.55929 h 0.55929 0.55929 v 0.55929 0.55929 h 0.55929 0.55929 v 0.55928 0.5593 h -0.55929 -0.55929 z m 0,-5.59289 v -0.55929 h 0.55929 0.55929 v 0.55929 0.55929 h -0.55929 -0.55929 z m 2.23716,0 v -0.55929 h 0.55929 0.55929 v 0.55929 0.55929 h -0.55929 -0.55929 z m 4.47431,-1.11858 v -0.55928 h -1.11857 -1.11858 v -0.5593 -0.55929 h 1.11858 1.11857 v 0.55929 0.5593 h 0.55929 0.55929 v 0.55928 0.55929 h -0.55929 -0.55929 z m -19.01584,-1.11858 v -0.55929 h 0.55929 0.55929 v 0.55929 0.5593 h -0.55929 -0.55929 z m 4.47432,-3.91502 v -1.11858 h 0.55929 0.55929 v -0.5593 -0.55928 h -0.55929 -0.55929 v -0.55929 -0.55929 h 0.55929 0.55929 v 0.55929 0.55929 h 0.55928 0.5593 v 1.11858 1.11858 h 0.55929 0.55929 v -1.11858 -1.11858 h 0.55928 0.55929 v 1.67787 1.67787 h -2.23715 -2.23716 z m 25.727308,-7.27077 v -0.55929 h 0.55929 0.55929 v 0.55929 0.55929 h -0.55929 -0.55929 z m -24.608728,41.38743 v -0.55929 h 0.55928 0.5593 v -0.55929 -0.55929 h -0.5593 -0.55928 v 0.55929 0.55929 h -0.55929 -0.55929 v 0.55929 0.55929 h 0.55929 0.55929 z m 39.150258,-1.11858 v -0.55929 h 1.11858 1.11858 v -0.55929 -0.55929 h -1.11858 -1.11858 v 0.55929 0.55929 h -0.55929 -0.55929 v 0.55929 0.55929 h 0.55929 0.55929 z M 93.148102,184.0868 v -1.67787 h -1.67787 -1.67787 v 1.67787 1.67787 h 1.67787 1.67787 z m -2.23716,0 v -0.55928 h 0.55929 0.55929 v 0.55928 0.55929 h -0.55929 -0.55929 z m 22.371578,0 v -1.67787 h -1.67787 -1.67786 v 1.67787 1.67787 h 1.67786 1.67787 z m -2.23716,0 v -0.55928 h 0.55929 0.55929 v 0.55928 0.55929 h -0.55929 -0.55929 z m -35.794518,-1.11858 v -0.55929 h -0.55929 -0.55929 v 0.55929 0.5593 h 0.55929 0.55929 z m 3.35574,-1.11858 v -0.55928 h -0.55929 -0.55929 v -0.5593 -0.55928 h -0.5593 -0.55928 v 0.55928 0.5593 h 0.55928 0.5593 v 0.55928 0.55929 h 0.55929 0.55929 z m -1.11858,-3.35573 v -0.55929 h -0.5593 -0.55928 v 0.55929 0.55929 h 0.55928 0.5593 z m 39.150258,0 v -0.55929 h -0.55929 -0.55929 v -0.5593 -0.55928 h 0.55929 0.55929 v -0.55929 -0.55929 h -0.55929 -0.55929 v 0.55929 0.55929 h -0.55929 -0.55929 v 0.55928 0.5593 h 0.55929 0.55929 v 0.55929 0.55929 h 0.55929 0.55929 z m -50.336058,-1.67787 v -1.11858 h -0.55928 -0.55929 v 1.11858 1.11858 h 0.55929 0.55928 z m 5.5929,-0.55929 v -0.55929 h -0.55929 -0.55929 v 0.55929 0.55929 h 0.55929 0.55929 z m -5.5929,-3.35574 v -0.55929 h -0.55928 -0.55929 v 0.55929 0.55929 h 0.55929 0.55928 z m 17.89727,0 v -0.55929 h 0.55929 0.55929 v -0.55929 -0.55929 h 0.55929 0.55929 v -0.55929 -0.55928 h -0.55929 -0.55929 v 0.55928 0.55929 h -0.55929 -0.55929 v -0.55929 -0.55928 h -0.55929 -0.55929 v 0.55928 0.55929 h 0.55929 0.55929 v 0.55929 0.55929 h -0.55929 -0.55929 v 0.55929 0.55929 h 0.55929 0.55929 z m -11.18579,-8.94863 v -1.67787 h -1.67787 -1.67787 v 1.67787 1.67787 h 1.67787 1.67787 z m -2.23716,0 v -0.55929 h 0.55929 0.55929 v 0.55929 0.55929 h -0.55929 -0.55929 z m 22.37158,0 v -1.67787 h -1.67787 -1.67787 v 1.67787 1.67787 h 1.67787 1.67787 z m -2.23716,0 v -0.55929 h 0.55929 0.55929 v 0.55929 0.55929 h -0.55929 -0.55929 z m 22.371578,0 v -1.67787 h -1.67787 -1.67786 v 1.67787 1.67787 h 1.67786 1.67787 z m -2.23716,0 v -0.55929 h 0.55929 0.55929 v 0.55929 0.55929 h -0.55929 -0.55929 z m -42.505998,0 v -0.55929 h -0.55928 -0.55929 v 0.55929 0.55929 h 0.55929 0.55928 z m 46.980318,-3.91503 v -1.11858 h -1.67787 -1.67787 v 1.11858 1.11858 h 1.67787 1.67787 z m -1.11858,-3.91503 v -1.67786 h -0.55929 -0.55929 v -0.5593 -0.55928 h 0.55929 0.55929 v -1.11858 -1.11858 h 0.55929 0.55929 v -0.55929 -0.55929 h 0.55929 0.55929 v -0.55929 -0.55929 h -0.55929 -0.55929 v 0.55929 0.55929 h -1.67787 -1.67787 v 1.11858 1.11858 h -0.55929 -0.55929 v -0.5593 -0.55928 h -1.11857 -1.11859 v 0.55928 0.5593 h 1.11859 1.11857 v 0.55929 0.55929 h 0.55929 0.55929 v 0.55928 0.5593 h 0.55929 0.55929 v 1.67786 1.67788 h 0.55929 0.55929 z M 68.539362,151.648 v -0.55928 h -0.55928 -0.55929 v -1.11858 -1.11858 h -0.55929 -0.5593 v 1.11858 1.11858 h 0.5593 0.55929 v 0.55928 0.5593 h 0.55929 0.55928 z m 19.01585,-6.71147 v -0.55928 h 0.55928 0.5593 v -0.5593 -0.55929 h -0.5593 -0.55928 v 0.55929 0.5593 h -0.55929 -0.55929 v -0.5593 -0.55929 h -0.55929 -0.55929 v 1.11859 1.11857 h 1.11858 1.11858 z m 5.59289,-1.11858 v -1.67786 h -1.67787 -1.67787 v 1.67786 1.67787 h 1.67787 1.67787 z m -2.23716,0 v -0.55929 h 0.55929 0.55929 v 0.55929 0.5593 h -0.55929 -0.55929 z m 13.422948,0 v -0.55929 h -0.55929 -0.55929 v 0.55929 0.5593 h 0.55929 0.55929 z M 76.369422,141.5808 v -0.55929 h 0.55928 0.5593 v -1.67787 -1.67787 h -0.5593 -0.55928 v 1.11858 1.11858 h -1.11858 -1.11858 v 0.55929 0.55929 h 0.55929 0.55929 v 0.55929 0.55929 h 0.55929 0.55929 z m 3.35573,-2.23716 v -0.55929 h -0.55929 -0.55928 v 0.55929 0.55929 h 0.55928 0.55929 z m 12.30437,0 v -0.55929 h -0.55929 -0.55929 v 0.55929 0.55929 h 0.55929 0.55929 z m -13.42294,50.89534 v -1.11857 h 0.55928 0.55929 v 1.11857 1.11859 h -0.55929 -0.55928 z m 33.557358,0.5593 v -0.5593 h -0.55929 -0.55929 v -0.55928 -0.55929 h 1.11858 1.11858 v 1.11857 1.11859 h -0.55929 -0.55929 z m 2.23716,0 v -0.5593 h 1.67787 1.67787 v -0.55928 -0.55929 h 0.55929 0.55929 v 1.11857 1.11859 h -2.23716 -2.23716 z m -43.624578,-8.94864 v -0.55928 h 0.55929 0.55929 v 0.55928 0.55929 h -0.55929 -0.55929 z m 46.980318,0 v -0.55928 h 0.55929 0.55929 v 0.55928 0.55929 h -0.55929 -0.55929 z m -1.11858,-15.6601 v -0.55929 h 1.11858 1.11858 v 0.55929 0.55928 h -1.11858 -1.11858 z M 70.776522,146.05511 v -0.55929 h 1.67787 1.67787 v 0.55929 0.55929 h -1.67787 -1.67787 z m 45.861738,0 v -0.55929 h 0.55929 0.55929 v 0.55929 0.55929 h -0.55929 -0.55929 z m -52.573208,-5.59289 v -3.91503 h 3.91503 3.91502 v 3.91503 3.91503 h -3.91502 -3.91503 z m 6.71147,0 v -2.79645 h -2.79644 -2.79645 v 2.79645 2.79644 h 2.79645 2.79644 z m -4.47432,0 v -1.67787 h 1.67788 1.67786 v 1.67787 1.67787 h -1.67786 -1.67788 z m 44.743158,0 v -3.91503 h 3.91503 3.91503 v 3.91503 3.91503 h -3.91503 -3.91503 z m 6.71148,0 v -2.79645 h -2.79645 -2.79645 v 2.79645 2.79644 h 2.79645 2.79645 z m -4.47432,0 v -1.67787 h 1.67787 1.67787 v 1.67787 1.67787 h -1.67787 -1.67787 z m -8.94863,0 v -0.55929 h -0.55929 -0.55929 v -1.67787 -1.67787 h 1.67787 1.67787 v 0.55929 0.55929 h 1.11858 1.11857 v -0.55929 -0.55929 h 0.55929 0.5593 v 1.67787 1.67787 h -0.5593 -0.55929 v 0.55929 0.55929 h -0.55928 -0.55929 v -1.11858 -1.11858 h -0.5593 -0.55928 v -0.55929 -0.55929 h -0.55929 -0.55929 v 0.55929 0.55929 h -0.55929 -0.55929 v 0.55929 0.55929 h 1.11858 1.11858 v 0.55929 0.55929 h -1.11858 -1.11858 z"
         style="fill:#000000;stroke-width:0.11185791" />
    </g>
    <text
       inkscape:export-ydpi="96"
       inkscape:export-xdpi="96"
       inkscape:export-filename="/home/nn/Documents/Web &amp; Design/Sites/profantonionasi.com.br/1.5/img/2.png"
       id="text847"
       y="163.42526"
       x="37.596554"
       style="font-style:normal;font-weight:normal;font-size:10.19851017px;line-height:1.25;font-family:sans-serif;fill:#ffffff;fill-opacity:1;stroke:none;stroke-width:0.25496331"
       xml:space="preserve"><tspan
         y="163.42526"
         x="37.596554"
         style="font-style:normal;font-variant:normal;font-weight:normal;font-stretch:normal;font-family:'Source Sans Pro';-inkscape-font-specification:'Source Sans Pro';fill:#ffffff;stroke-width:0.25496331"
         sodipodi:role="line"
         id="tspan849">Aponte o celular para o QR code ou clique aqui.</tspan></text>
  </g>
</svg>
